<svg width="644" height="204" viewBox="0 0 644 204" fill="none" xmlns="http://www.w3.org/2000/svg">
<path d="M95.4619 10.36V22.84H97.7179V0.52002H95.4619V8.46402H90.9499V10.36H95.4619ZM92.9899 16.336C89.8459 14.584 87.2539 11.176 87.2539 6.85602V4.69602H92.1739V2.84802H79.8379V4.69602H84.9259V6.88002C84.9259 11.104 82.4299 14.872 78.9979 16.84L80.4619 18.496C83.1259 16.84 85.4299 14.008 86.1019 11.464C86.8459 13.936 89.5099 16.768 91.6699 18.04L92.9899 16.336Z" fill="white"/>
<path d="M119.388 9.25602V7.40802H106.476V1.43202H104.22V9.25602H119.388ZM119.484 22.336V20.488H106.404V15.736H104.148V22.336H119.484ZM121.62 13.72V11.872H101.46V13.72H121.62Z" fill="white"/>
<path d="M139.577 10C139.577 13.432 138.377 15.928 136.121 15.928C133.841 15.928 132.689 13.432 132.689 10C132.689 6.54402 133.841 4.04802 136.121 4.04802C138.377 4.04802 139.577 6.54402 139.577 10ZM130.385 9.97602C130.385 14.416 132.161 17.872 136.121 17.872C139.793 17.872 141.545 14.872 141.785 10.888H146.321V22.84H148.577V0.52002H146.321V8.96802H141.785C141.521 5.03202 139.745 2.10402 136.121 2.10402C132.161 2.10402 130.385 5.56002 130.385 9.97602Z" fill="white"/>
<path d="M171.207 22.84V0.52002H169.023V22.84H171.207ZM166.791 21.736V1.02402H164.631V8.53602H161.319V10.384H164.631V21.736H166.791ZM163.743 16.096C161.319 14.608 158.991 11.56 158.991 7.00002V4.98402H163.095V3.16002H152.439V4.98402H156.783V7.07202C156.783 11.44 154.719 14.8 151.935 16.6L153.375 18.16C155.415 16.768 157.383 14.248 157.863 11.896C158.487 14.128 160.839 16.672 162.375 17.704L163.743 16.096Z" fill="white"/>
<path d="M181.021 3.88002C183.181 3.88002 184.765 5.22402 184.765 7.38402C184.765 9.47202 183.157 10.744 181.021 10.744C178.981 10.744 177.277 9.44802 177.277 7.38402C177.277 5.27202 178.957 3.88002 181.021 3.88002ZM195.205 11.632V9.73602H191.773V0.52002H189.541V22.84H191.773V11.632H195.205ZM181.021 1.96002C177.661 1.96002 174.949 4.19202 174.949 7.40802C174.949 10.288 177.109 12.232 179.989 12.592V16.336C177.829 16.432 175.765 16.432 173.989 16.432L174.325 18.352C176.149 18.352 178.261 18.28 180.661 18.136C183.325 17.992 186.493 17.776 188.341 17.512L188.125 15.712C186.661 15.928 184.621 16.072 182.245 16.216V12.568C185.053 12.136 187.165 10.24 187.165 7.38402C187.165 4.16802 184.429 1.96002 181.021 1.96002Z" fill="white"/>
<path d="M219.306 7.96002C219.306 10.432 216.906 12.16 213.306 12.16C209.706 12.16 207.33 10.432 207.33 7.96002C207.33 5.48802 209.706 3.76002 213.306 3.76002C216.93 3.76002 219.306 5.48802 219.306 7.96002ZM221.61 7.96002C221.61 4.33602 218.322 1.93602 213.306 1.93602C208.314 1.93602 205.002 4.33602 205.002 7.96002C205.002 11.296 207.81 13.6 212.154 13.936V18.088H203.226V19.936H223.386V18.088H214.41V13.96C218.778 13.624 221.61 11.32 221.61 7.96002Z" fill="white"/>
<path d="M243.112 7.81602V5.99202H230.224V1.07202H227.968V7.81602H243.112ZM243.616 22.648V20.776H230.032V18.76H242.872V13.36H227.728V15.184H240.616V17.056H227.776V22.648H243.616ZM245.464 11.44V9.61602H225.304V11.44H245.464Z" fill="white"/>
<path d="M257.39 10.096C257.39 13.528 256.214 16.024 253.934 16.024C251.654 16.024 250.478 13.528 250.478 10.096C250.478 6.64002 251.654 4.14402 253.934 4.14402C256.214 4.14402 257.39 6.64002 257.39 10.096ZM248.174 10.072C248.174 14.512 249.974 17.968 253.934 17.968C257.894 17.968 259.646 14.512 259.646 10.096C259.646 5.65602 257.894 2.20002 253.934 2.20002C249.974 2.20002 248.174 5.65602 248.174 10.072ZM265.79 22.84V0.52002H263.534V22.84H265.79Z" fill="white"/>
<path d="M293.419 0.52002H291.187V22.84H293.419V11.104H296.899V9.23202H293.419V0.52002ZM279.379 15.496V4.72002H287.683V2.87202H277.147V17.392H279.643C283.699 17.368 287.539 17.104 289.867 16.624L289.603 14.776C287.347 15.28 283.243 15.496 280.315 15.496H279.379Z" fill="white"/>
<path d="M316.025 22.192V20.368H303.137V16.552H300.881V22.192H316.025ZM318.425 14.992V13.144H298.265V14.992H318.425ZM316.217 11.224V9.42402H303.209V7.12002H315.713V1.45602H300.857V3.23202H313.457V5.41602H300.953V11.224H316.217Z" fill="white"/>
<path d="M335.781 11.536H330.237V7.62402H335.781V11.536ZM345.909 22.144V20.296H333.165V15.328H330.909V22.144H345.909ZM345.381 0.52002H343.125V4.19202H339.261V6.06402H343.125V9.08802H339.261V10.96H343.125V16.768H345.381V0.52002ZM338.037 13.36V1.96002H335.781V5.82402H330.237V1.98402H327.981V13.36H338.037Z" fill="white"/>
<path d="M361.699 10.216C359.203 10.744 355.627 10.96 352.531 10.96V3.80802H360.404V1.96002H350.276V12.856H352.556C356.516 12.808 359.803 12.496 362.035 12.04L361.699 10.216ZM367.483 22.84V14.92H352.508V16.744H365.203V22.84H367.483ZM367.46 13.768V0.52002H365.203V5.99202H359.155V7.84002H365.203V13.768H367.46Z" fill="white"/>
<path d="M391.386 19.816V17.968H371.226V19.816H391.386ZM390.762 11.824C387.354 11.152 382.482 7.84002 382.482 4.12002V2.36802H380.154V4.12002C380.154 7.86402 375.546 11.104 371.898 11.752L373.05 13.576C376.674 12.64 380.394 9.80802 381.306 7.28802C382.338 9.78402 386.034 12.616 389.538 13.6L390.762 11.824Z" fill="white"/>
<path d="M406 15.064C403.168 15.616 399.784 15.736 396.28 15.736V10.552H404.32V2.53602H394.024V4.36002H402.064V8.70402H394.024V17.608H396.376C400.168 17.608 403.912 17.344 406.24 16.912L406 15.064ZM411.592 22.84V0.52002H409.336V9.04002H405.592V10.96H409.336V22.84H411.592Z" fill="white"/>
<path d="M433.142 22.168V20.32H420.278V15.688H418.022V22.168H433.142ZM425.462 3.11202C428.726 3.11202 430.838 4.00002 430.838 5.65602C430.838 7.28802 428.702 8.17602 425.438 8.17602C422.198 8.17602 420.11 7.28802 420.11 5.65602C420.11 4.00002 422.222 3.11202 425.462 3.11202ZM426.71 18.016V13.672H435.542V11.824H415.382V13.672H424.454V18.016H426.71ZM433.142 5.63202C433.142 2.92002 430.262 1.26402 425.462 1.26402C420.638 1.26402 417.806 2.92002 417.806 5.63202C417.806 8.36802 420.638 10.024 425.462 10.024C430.262 10.024 433.142 8.36802 433.142 5.63202Z" fill="white"/>
<path d="M457.339 15.712C454.195 13.768 451.699 10.24 451.699 6.06402V2.44002H449.371V6.16002C449.371 10.264 446.995 14.152 443.635 16.264L445.051 17.944C447.571 16.264 449.779 13.432 450.547 10.72C451.387 13.312 454.003 16.096 455.995 17.392L457.339 15.712ZM464.899 11.272V9.40002H461.419V0.52002H459.187V22.84H461.419V11.272H464.899Z" fill="white"/>
<path d="M483.521 22.528V15.136H469.193V22.528H483.521ZM479.201 10.672C476.849 11.176 472.481 11.368 469.817 11.368H469.385V8.20002H477.161V1.93602H467.057V3.76002H474.905V6.42402H467.129V13.216H469.769C472.865 13.216 477.329 12.904 479.489 12.472L479.201 10.672ZM481.265 20.704H471.425V16.936H481.265V20.704ZM486.833 8.17602V6.30402H483.497V0.52002H481.265V14.08H483.497V8.17602H486.833Z" fill="white"/>
<path d="M501.429 3.52002C503.421 3.52002 504.861 4.79202 504.861 6.85602C504.861 8.84802 503.397 10.096 501.429 10.096C499.509 10.096 497.997 8.84802 497.997 6.83202C497.997 4.81602 499.485 3.52002 501.429 3.52002ZM501.429 1.55202C498.237 1.55202 495.717 3.73602 495.717 6.88002C495.717 10.048 498.237 12.064 501.429 12.064C504.621 12.064 507.141 10.048 507.141 6.85602C507.141 3.68802 504.621 1.55202 501.429 1.55202ZM511.149 20.728H501.165V18.112H511.149V20.728ZM513.405 22.552V13.672H511.149V16.312H501.165V13.696H498.909V22.552H513.405ZM513.381 12.472V0.52002H511.125V12.472H513.381Z" fill="white"/>
<path d="M531.091 14.416C528.523 15.016 523.699 15.376 520.747 15.376V2.84802H518.492V17.32H520.58C523.748 17.272 528.764 16.888 531.38 16.24L531.091 14.416ZM535.435 0.52002H533.203V22.84H535.435V0.52002Z" fill="white"/>
<path d="M556.458 0.52002H554.226V22.84H556.458V11.104H559.938V9.23202H556.458V0.52002ZM542.418 15.496V4.72002H550.722V2.87202H540.186V17.392H542.682C546.738 17.368 550.578 17.104 552.906 16.624L552.642 14.776C550.386 15.28 546.282 15.496 543.354 15.496H542.418Z" fill="white"/>
<path d="M561.472 20.56H563.944V18.064H561.472V20.56Z" fill="white"/>
<path d="M10.963 38.92H17.155V37.048H10.963V38.92ZM15.067 58.072V50.824C17.443 50.704 20.011 50.512 21.691 50.296L21.523 48.496C19.651 48.712 16.963 48.88 13.963 49C11.491 49.096 8.99504 49.144 6.37904 49.144L6.71504 51.088C8.63504 51.064 10.627 51.04 12.811 50.944V58.072H15.067ZM25.027 58.84V36.52H22.771V58.84H25.027ZM8.25104 42.16H12.883C12.499 44.392 9.88304 45.808 7.31504 46.144L8.34704 47.992C10.939 47.536 13.291 46.048 14.059 44.344C14.947 45.88 17.371 47.2 19.651 47.56L20.587 45.64C18.283 45.472 15.595 44.176 15.187 42.16H19.939V40.288H8.25104V42.16Z" fill="white"/>
<path d="M38.3692 51.28H32.1772V40.6H38.3692V51.28ZM40.6252 53.128V38.752H29.9212V53.128H40.6252ZM47.0092 58.84V36.52H44.7532V58.84H47.0092Z" fill="white"/>
<path d="M68.9913 45.256V43.552H55.6233V42.064H68.5353V37.288H53.3913V38.968H66.2793V40.528H53.3673V45.256H68.9913ZM69.3753 58.432V56.704H55.3833V55.072H68.6553V50.128H53.1273V51.832H66.3993V53.488H53.1273V58.432H69.3753ZM70.9833 48.568V46.84H50.8233V48.568H70.9833Z" fill="white"/>
<path d="M95.012 44.032H84.404V41.656H95.012V44.032ZM97.436 58.168V56.32H84.404V52.048H82.148V58.168H97.436ZM90.932 54.112V49.984H99.788V48.16H79.628V49.984H88.676V54.112H90.932ZM97.268 45.856V37.216H95.012V39.856H84.404V37.24H82.148V45.856H97.268Z" fill="white"/>
<path d="M102.738 38.896V40.792H111.042C110.634 45.616 107.01 50.272 101.73 52.792L103.122 54.52C109.218 51.208 113.346 45.976 113.49 38.896H102.738ZM120.018 58.84V36.52H117.762V58.84H120.018Z" fill="white"/>
<path d="M144.592 47.248V45.376H141.016V36.52H138.76V58.84H141.016V47.248H144.592ZM132.688 51.424H126.76V40.6H132.688V51.424ZM134.944 53.248V38.752H124.504V53.248H134.944Z" fill="white"/>
<path d="M163.094 36.52H160.862V58.84H163.094V47.104H166.574V45.232H163.094V36.52ZM149.054 51.496V40.72H157.358V38.872H146.822V53.392H149.318C153.374 53.368 157.214 53.104 159.542 52.624L159.278 50.776C157.022 51.28 152.918 51.496 149.99 51.496H149.054Z" fill="white"/>
<path d="M183.595 51.472H177.619V45.784H183.595V51.472ZM185.851 53.296V38.368H183.595V43.96H177.619V38.392H175.387V53.296H185.851ZM195.451 47.128V45.256H191.899V36.52H189.667V58.84H191.899V47.128H195.451Z" fill="white"/>
<path d="M207.209 37.984V39.808H212.345C212.345 42.136 212.009 45.352 211.529 47.248H204.329C204.953 44.56 205.433 41.248 205.433 37.984H198.353V39.808H203.129C203.129 42.256 202.601 45.376 202.097 47.248H196.745V49.096H205.673V58.864H207.929V49.096H216.905V47.248H213.737C214.313 44.56 214.625 41.248 214.625 37.984H207.209Z" fill="white"/>
<path d="M219.855 38.896V40.792H228.159C227.751 45.616 224.127 50.272 218.847 52.792L220.239 54.52C226.335 51.208 230.463 45.976 230.607 38.896H219.855ZM237.135 58.84V36.52H234.879V58.84H237.135Z" fill="white"/>
<path d="M261.061 56.008V54.16H252.061V48.928H258.805V47.08H245.557V40.168H258.685V38.32H243.301V48.928H249.805V54.16H240.901V56.008H261.061Z" fill="white"/>
<path d="M279.33 49.6C279.33 51.256 278.13 52.408 276.306 52.408C274.554 52.408 273.282 51.256 273.282 49.6C273.282 47.944 274.578 46.768 276.306 46.768C278.034 46.768 279.33 47.944 279.33 49.6ZM281.562 49.6C281.562 46.936 279.474 44.896 276.306 44.896C273.138 44.896 271.026 46.984 271.026 49.6C271.026 52.288 273.138 54.28 276.306 54.28C279.474 54.28 281.562 52.24 281.562 49.6ZM282.81 43.648V41.824H269.586V43.648H282.81ZM279.57 39.808V37.96H272.898V39.808H279.57ZM290.49 47.704V45.808H286.938V36.52H284.682V58.84H286.938V47.704H290.49Z" fill="white"/>
<path d="M311.944 55.576V53.728H301.72V46.216H299.464V53.728H291.784V55.576H311.944ZM309.328 38.584H293.872V40.432H307.024V43.096C307.024 45.736 306.712 48.856 306.208 50.752L308.392 51.112C309.04 48.424 309.28 45.568 309.328 42.016V38.584Z" fill="white"/>
<path d="M313.502 59.416H315.374L316.958 54.256H314.39L313.502 59.416Z" fill="white"/>
<path d="M342.159 56.728H331.647V54.304H342.159V56.728ZM344.415 58.552V50.032H342.159V52.504H331.647V50.056H329.391V58.552H344.415ZM346.983 48.592V46.744H326.823V48.592H346.983ZM345.975 43.408C342.711 43.144 338.079 40.72 338.079 37.528V36.832H335.751V37.528C335.751 40.72 331.431 43 327.879 43.384L328.863 45.16C332.223 44.584 335.871 42.616 336.903 40.24C338.007 42.592 341.751 44.632 344.943 45.184L345.975 43.408Z" fill="white"/>
<path d="M369.565 45.424V43.528H366.253V36.52H364.021V53.224H366.253V45.424H369.565ZM367.045 58.264V56.44H354.277V51.76H352.021V58.264H367.045ZM362.509 47.464C360.805 47.728 357.901 47.944 355.405 48.04V43.312H353.149V48.088C351.541 48.136 349.717 48.136 348.445 48.136L348.781 50.032C350.461 50.032 353.245 49.96 355.645 49.84C357.829 49.768 360.901 49.48 362.773 49.216L362.509 47.464ZM349.981 38.2V40.048H358.693C358.693 42.376 358.525 44.272 358.141 45.664L360.325 46C360.805 44.2 360.973 41.824 360.973 38.2H349.981Z" fill="white"/>
<path d="M391.764 47.728V45.856H388.356V36.52H386.1V58.84H388.356V47.728H391.764ZM384.636 51.592C382.74 51.88 380.316 52.048 377.484 52.168V45.16H375.276V52.24C373.644 52.288 371.844 52.288 370.476 52.288L370.812 54.184C372.636 54.184 374.964 54.136 377.22 54.04C379.524 53.896 382.788 53.68 384.9 53.368L384.636 51.592ZM371.796 38.752V40.6H381.18C381.18 43.552 380.964 46.792 380.532 48.712L382.716 49C383.22 46.792 383.46 42.784 383.46 38.752H371.796Z" fill="white"/>
<path d="M409 45.232H402.808V39.736H409V45.232ZM411.232 47.032V37.936H400.576V47.032H411.232ZM417.808 58.672V56.824H405.088V54.616H417.016V49.048H402.688V50.872H414.76V52.912H402.832V58.672H417.808ZM420.352 43.216V41.344H417.016V36.52H414.76V47.848H417.016V43.216H420.352Z" fill="white"/>
<path d="M433.022 58.696V51.856H442.022V50.008H421.862V51.856H430.766V58.696H433.022ZM439.214 43.552V41.752H426.518V39.64H439.526V37.792H424.262V47.8H439.67V45.976H426.518V43.552H439.214Z" fill="white"/>
<path d="M461.172 36.52H458.94V58.84H461.172V47.536H464.748V45.664H461.172V36.52ZM444.948 38.896V40.792H452.892C452.484 45.616 449.244 50.272 443.964 52.792L445.356 54.52C451.452 51.208 455.172 45.976 455.316 38.896H444.948Z" fill="white"/>
<path d="M481.673 51.472H475.697V45.784H481.673V51.472ZM483.929 53.296V38.368H481.673V43.96H475.697V38.392H473.465V53.296H483.929ZM493.529 47.128V45.256H489.977V36.52H487.745V58.84H489.977V47.128H493.529Z" fill="white"/>
<path d="M513.303 58.84V36.52H511.047V58.84H513.303ZM503.391 57.64V48.496C505.767 48.376 508.191 48.184 509.943 47.944L509.727 46.12C509.055 46.216 508.335 46.288 507.567 46.336C507.975 44.08 508.263 41.104 508.263 38.296H502.815V40.12H506.007C506.007 42.304 505.767 44.68 505.359 46.504C504.279 46.552 503.175 46.624 502.119 46.648C501.687 46.672 501.279 46.696 500.847 46.696C501.303 44.392 501.639 41.272 501.639 38.296H496.143V40.12H499.383C499.383 42.424 499.095 44.896 498.663 46.744C497.319 46.768 495.951 46.768 494.559 46.768L494.871 48.736C496.671 48.712 498.999 48.664 501.135 48.592V57.64H503.391Z" fill="white"/>
<path d="M517.933 38.896V40.792H526.237C525.829 45.616 522.205 50.272 516.925 52.792L518.317 54.52C524.413 51.208 528.541 45.976 528.685 38.896H517.933ZM535.213 58.84V36.52H532.957V58.84H535.213Z" fill="white"/>
<path d="M559.14 56.008V54.16H550.14V48.928H556.884V47.08H543.636V40.168H556.764V38.32H541.38V48.928H547.884V54.16H538.98V56.008H559.14Z" fill="white"/>
<path d="M577.192 46.168C577.192 47.296 575.824 48.04 574.264 48.04C572.704 48.04 571.312 47.296 571.312 46.168C571.312 45.016 572.68 44.272 574.264 44.272C575.824 44.272 577.192 45.016 577.192 46.168ZM579.424 46.168C579.424 43.984 577.336 42.568 574.264 42.568C571.168 42.568 569.104 43.984 569.104 46.168C569.104 48.304 571.168 49.744 574.264 49.744C577.336 49.744 579.424 48.28 579.424 46.168ZM580.648 41.656V39.88H567.664V41.656H580.648ZM577.336 38.512V36.712H571V38.512H577.336ZM582.784 56.776H573.112V54.52H582.784V56.776ZM585.016 58.6V50.512H582.784V52.72H573.112V50.536H570.856V58.6H585.016ZM588.352 44.68V42.808H585.016V36.52H582.784V49.408H585.016V44.68H588.352Z" fill="white"/>
<path d="M603.806 50.416C601.238 51.016 596.414 51.376 593.462 51.376V38.848H591.206V53.32H593.294C596.462 53.272 601.478 52.888 604.094 52.24L603.806 50.416ZM608.15 36.52H605.918V58.84H608.15V36.52Z" fill="white"/>
<path d="M629.172 36.52H626.94V58.84H629.172V47.104H632.652V45.232H629.172V36.52ZM615.132 51.496V40.72H623.436V38.872H612.9V53.392H615.396C619.452 53.368 623.292 53.104 625.62 52.624L625.356 50.776C623.1 51.28 618.996 51.496 616.068 51.496H615.132Z" fill="white"/>
<path d="M634.187 56.56H636.659V54.064H634.187V56.56Z" fill="white"/>
<path d="M89.0534 108.52V130.84H91.3094V108.52H89.0534ZM86.6534 123.832C83.4854 122.128 80.9894 118.696 80.9894 114.376V112.6H85.9814V110.752H73.5974V112.6H78.6614V114.4C78.6614 118.744 76.2134 122.416 72.8054 124.384L74.2454 126.04C76.8854 124.48 79.1894 121.6 79.8374 118.984C80.5334 121.456 83.1734 124.264 85.3094 125.512L86.6534 123.832Z" fill="white"/>
<path d="M112.212 108.52H109.956V130.84H112.212V119.152H115.764V117.256H112.212V108.52ZM108.108 122.176C105.492 122.872 100.572 123.16 97.9315 123.16V110.704H95.6755V125.104C96.3475 125.104 97.0435 125.104 97.7395 125.08C100.86 125.032 105.9 124.696 108.444 124.048L108.108 122.176Z" fill="white"/>
<path d="M117.946 110.32V112.192H125.578C124.954 116.104 121.402 119.536 116.794 120.664L117.946 122.512C123.778 120.808 127.858 116.392 128.05 110.32H117.946ZM134.962 130.24V128.392H122.458V123.256H120.202V130.24H134.962ZM137.65 117.208V115.312H134.29V108.52H132.034V124.96H134.29V117.208H137.65Z" fill="white"/>
<path d="M147.086 110.32V112.216H154.742C154.214 115.96 150.494 119.368 145.958 120.496L147.158 122.368C152.966 120.448 156.902 116.296 157.19 110.32H147.086ZM165.422 129.232C162.062 128.776 158.03 126.16 158.03 122.992V121.744H155.702V122.992C155.702 126.208 151.742 128.848 148.118 129.256L149.294 131.056C152.558 130.456 156.014 128.104 156.83 126.064C157.694 127.96 161.27 130.504 164.222 131.056L165.422 129.232ZM161.918 116.656V123.376H164.174V108.52H161.918V114.76H157.262V116.656H161.918Z" fill="white"/>
<path d="M178.02 111.04C181.308 111.04 183.444 112.024 183.444 113.608C183.444 115.168 181.308 116.152 178.02 116.152C174.756 116.152 172.668 115.168 172.668 113.608C172.668 112.024 174.756 111.04 178.02 111.04ZM185.82 113.584C185.82 110.848 182.916 109.192 178.02 109.192C173.148 109.192 170.244 110.848 170.244 113.584C170.244 116.344 173.124 118.024 178.02 118.024C182.892 118.024 185.82 116.344 185.82 113.584ZM185.7 130.168V128.344H172.812V123.688H170.556V130.168H185.7ZM188.1 121.72V119.872H167.94V121.72H188.1Z" fill="white"/>
<path d="M205.457 119.536H199.913V115.624H205.457V119.536ZM215.585 130.144V128.296H202.841V123.328H200.585V130.144H215.585ZM215.057 108.52H212.801V112.192H208.937V114.064H212.801V117.088H208.937V118.96H212.801V124.768H215.057V108.52ZM207.713 121.36V109.96H205.457V113.824H199.913V109.984H197.657V121.36H207.713Z" fill="white"/>
<path d="M228.447 121.6C228.447 123.256 227.247 124.408 225.423 124.408C223.671 124.408 222.399 123.256 222.399 121.6C222.399 119.944 223.695 118.768 225.423 118.768C227.151 118.768 228.447 119.944 228.447 121.6ZM230.679 121.6C230.679 118.936 228.591 116.896 225.423 116.896C222.255 116.896 220.143 118.984 220.143 121.6C220.143 124.288 222.255 126.28 225.423 126.28C228.591 126.28 230.679 124.24 230.679 121.6ZM231.927 115.648V113.824H218.703V115.648H231.927ZM228.687 111.808V109.96H222.015V111.808H228.687ZM239.607 119.704V117.808H236.055V108.52H233.799V130.84H236.055V119.704H239.607Z" fill="white"/>
<path d="M257.053 108.52V130.84H259.309V108.52H257.053ZM254.653 123.832C251.485 122.128 248.989 118.696 248.989 114.376V112.6H253.981V110.752H241.597V112.6H246.661V114.4C246.661 118.744 244.213 122.416 240.805 124.384L242.245 126.04C244.885 124.48 247.189 121.6 247.837 118.984C248.533 121.456 251.173 124.264 253.309 125.512L254.653 123.832Z" fill="white"/>
<path d="M281.418 114.952C281.418 111.808 278.898 109.576 275.682 109.576C272.49 109.576 269.97 111.88 269.97 115C269.97 118.168 272.49 120.232 275.706 120.232C278.898 120.232 281.418 118.096 281.418 114.952ZM287.658 128.248C287.658 126.376 285.714 125.416 283.482 125.416C281.226 125.416 279.306 126.376 279.306 128.248C279.306 130.096 281.226 131.08 283.482 131.08C285.714 131.08 287.658 130.096 287.658 128.248ZM279.138 114.952C279.138 116.896 277.794 118.264 275.706 118.264C273.642 118.264 272.25 116.896 272.25 114.952C272.25 113.032 273.642 111.568 275.682 111.568C277.818 111.568 279.138 113.056 279.138 114.952ZM290.274 115.24V113.368H286.938V108.52H284.682V119.08H286.938V115.24H290.274ZM278.346 127.768C277.026 128.2 275.226 128.608 273.834 128.656V122.32H271.65V130.552C274.506 130.552 277.098 130.072 278.682 129.568L278.346 127.768ZM289.026 124.696V122.968H277.986V124.696H289.026ZM286.194 121.888V120.136H280.938V121.888H286.194ZM285.546 128.248C285.546 129.04 284.586 129.424 283.482 129.424C282.402 129.424 281.418 129.04 281.418 128.248C281.418 127.48 282.402 127.072 283.482 127.072C284.586 127.072 285.546 127.48 285.546 128.248Z" fill="white"/>
<path d="M311.944 127.576V125.728H301.72V118.216H299.464V125.728H291.784V127.576H311.944ZM309.328 110.584H293.872V112.432H307.024V115.096C307.024 117.736 306.712 120.856 306.208 122.752L308.392 123.112C309.04 120.424 309.28 117.568 309.328 114.016V110.584Z" fill="white"/>
<path d="M313.502 131.416H315.374L316.958 126.256H314.39L313.502 131.416Z" fill="white"/>
<path d="M342.903 118.36V130.84H345.159V108.52H342.903V116.464H338.391V118.36H342.903ZM340.431 124.336C337.287 122.584 334.695 119.176 334.695 114.856V112.696H339.615V110.848H327.279V112.696H332.367V114.88C332.367 119.104 329.871 122.872 326.439 124.84L327.903 126.496C330.567 124.84 332.871 122.008 333.543 119.464C334.287 121.936 336.951 124.768 339.111 126.04L340.431 124.336Z" fill="white"/>
<path d="M361.933 115.552C361.933 112.36 359.389 110.296 356.077 110.296C352.813 110.296 350.269 112.48 350.269 115.552C350.269 118.576 352.789 120.64 356.077 120.64C359.341 120.64 361.933 118.648 361.933 115.552ZM365.149 108.52V130.84H367.381V108.52H365.149ZM359.701 115.528C359.701 117.472 358.021 118.744 356.077 118.744C354.109 118.744 352.501 117.448 352.501 115.528C352.501 113.608 354.109 112.192 356.077 112.192C358.093 112.192 359.701 113.488 359.701 115.528ZM363.709 123.4C361.933 123.616 359.293 123.784 356.149 123.904C353.509 124.048 350.893 124.072 348.757 124.072L349.117 125.992C350.893 125.968 353.245 125.92 355.789 125.8C358.621 125.656 361.909 125.44 363.949 125.176L363.709 123.4Z" fill="white"/>
<path d="M398.442 119.32V117.424H394.938V108.52H392.706V130.84H394.938V119.32H398.442ZM390.858 123.952C387.69 122.2 385.266 118.84 385.266 114.52V112.696H390.21V110.848H377.922V112.696H382.938V114.544C382.938 118.768 380.514 122.56 377.082 124.528L378.546 126.184C381.21 124.528 383.442 121.672 384.114 119.128C384.834 121.6 387.378 124.384 389.538 125.632L390.858 123.952Z" fill="white"/>
<path d="M404.08 110.92H410.272V109.048H404.08V110.92ZM408.184 130.072V122.824C410.56 122.704 413.128 122.512 414.808 122.296L414.64 120.496C412.768 120.712 410.08 120.88 407.08 121C404.608 121.096 402.112 121.144 399.496 121.144L399.832 123.088C401.752 123.064 403.744 123.04 405.928 122.944V130.072H408.184ZM418.144 130.84V108.52H415.888V130.84H418.144ZM401.368 114.16H406C405.616 116.392 403 117.808 400.432 118.144L401.464 119.992C404.056 119.536 406.408 118.048 407.176 116.344C408.064 117.88 410.488 119.2 412.768 119.56L413.704 117.64C411.4 117.472 408.712 116.176 408.304 114.16H413.056V112.288H401.368V114.16Z" fill="white"/>
<path d="M440.03 117.256V115.552H426.662V114.064H439.574V109.288H424.43V110.968H437.318V112.528H424.406V117.256H440.03ZM440.414 130.432V128.704H426.422V127.072H439.694V122.128H424.166V123.832H437.438V125.488H424.166V130.432H440.414ZM442.022 120.568V118.84H421.862V120.568H442.022Z" fill="white"/>
<path d="M466.123 120.016H455.371V115.96H466.123V120.016ZM468.379 121.864V110.08H466.123V114.136H455.371V110.08H453.115V121.864H459.571V126.256H450.667V128.104H470.827V126.256H461.827V121.864H468.379Z" fill="white"/>
<path d="M481.841 118C481.841 121.432 480.689 123.928 478.481 123.928C476.273 123.928 475.145 121.432 475.145 118C475.145 114.544 476.273 112.048 478.481 112.048C480.689 112.048 481.841 114.544 481.841 118ZM472.913 117.976C472.913 122.416 474.641 125.872 478.481 125.872C482.321 125.872 484.025 122.416 484.025 118C484.025 113.56 482.321 110.104 478.481 110.104C474.641 110.104 472.913 113.56 472.913 117.976ZM488.777 115.144V120.616H484.697L484.673 122.512H488.777V130.84H491.033V108.52H488.777V113.248H484.673L484.697 115.144H488.777Z" fill="white"/>
<path d="M516.958 128.728H506.326V126.568H516.958V128.728ZM512.71 123.496V120.544H521.71V118.72H501.55V120.544H510.454V123.496H512.71ZM520.75 115.768C517.654 115.528 513.67 113.848 512.95 111.232H519.766V109.408H503.494V111.232H510.358C509.71 113.824 506.062 115.504 502.558 115.792L503.542 117.568C507.358 117.088 510.67 115.192 511.63 113.08C512.782 115.144 516.214 117.064 519.742 117.568L520.75 115.768ZM519.214 130.552V122.296H516.958V124.792H506.326V122.344H504.07V130.552H519.214Z" fill="white"/>
<path d="M537.572 122.416C535.004 123.016 530.18 123.376 527.228 123.376V110.848H524.972V125.32H527.06C530.228 125.272 535.244 124.888 537.86 124.24L537.572 122.416ZM541.916 108.52H539.684V130.84H541.916V108.52Z" fill="white"/>
<path d="M562.938 108.52H560.706V130.84H562.938V119.104H566.418V117.232H562.938V108.52ZM548.898 123.496V112.72H557.202V110.872H546.666V125.392H549.162C553.218 125.368 557.058 125.104 559.386 124.624L559.122 122.776C556.866 123.28 552.762 123.496 549.834 123.496H548.898Z" fill="white"/>
<path d="M567.952 128.56H570.424V126.064H567.952V128.56Z" fill="white"/>
<path d="M8.16029 155.536H2.61629V151.624H8.16029V155.536ZM18.2883 166.144V164.296H5.54429V159.328H3.28829V166.144H18.2883ZM17.7603 144.52H15.5043V148.192H11.6403V150.064H15.5043V153.088H11.6403V154.96H15.5043V160.768H17.7603V144.52ZM10.4163 157.36V145.96H8.16029V149.824H2.61629V145.984H0.360291V157.36H10.4163Z" fill="white"/>
<path d="M31.1504 157.6C31.1504 159.256 29.9504 160.408 28.1264 160.408C26.3744 160.408 25.1024 159.256 25.1024 157.6C25.1024 155.944 26.3984 154.768 28.1264 154.768C29.8544 154.768 31.1504 155.944 31.1504 157.6ZM33.3824 157.6C33.3824 154.936 31.2944 152.896 28.1264 152.896C24.9584 152.896 22.8464 154.984 22.8464 157.6C22.8464 160.288 24.9584 162.28 28.1264 162.28C31.2944 162.28 33.3824 160.24 33.3824 157.6ZM34.6304 151.648V149.824H21.4064V151.648H34.6304ZM31.3904 147.808V145.96H24.7184V147.808H31.3904ZM42.3104 155.704V153.808H38.7584V144.52H36.5024V166.84H38.7584V155.704H42.3104Z" fill="white"/>
<path d="M59.7565 144.52V166.84H62.0125V144.52H59.7565ZM57.3565 159.832C54.1885 158.128 51.6925 154.696 51.6925 150.376V148.6H56.6845V146.752H44.3005V148.6H49.3645V150.4C49.3645 154.744 46.9165 158.416 43.5085 160.384L44.9485 162.04C47.5885 160.48 49.8925 157.6 50.5405 154.984C51.2365 157.456 53.8765 160.264 56.0125 161.512L57.3565 159.832Z" fill="white"/>
<path d="M84.1212 150.952C84.1212 147.808 81.6012 145.576 78.3852 145.576C75.1932 145.576 72.6732 147.88 72.6732 151C72.6732 154.168 75.1932 156.232 78.4092 156.232C81.6012 156.232 84.1212 154.096 84.1212 150.952ZM90.3612 164.248C90.3612 162.376 88.4172 161.416 86.1852 161.416C83.9292 161.416 82.0092 162.376 82.0092 164.248C82.0092 166.096 83.9292 167.08 86.1852 167.08C88.4172 167.08 90.3612 166.096 90.3612 164.248ZM81.8412 150.952C81.8412 152.896 80.4972 154.264 78.4092 154.264C76.3452 154.264 74.9532 152.896 74.9532 150.952C74.9532 149.032 76.3452 147.568 78.3852 147.568C80.5212 147.568 81.8412 149.056 81.8412 150.952ZM92.9772 151.24V149.368H89.6412V144.52H87.3852V155.08H89.6412V151.24H92.9772ZM81.0492 163.768C79.7292 164.2 77.9292 164.608 76.5372 164.656V158.32H74.3532V166.552C77.2092 166.552 79.8012 166.072 81.3852 165.568L81.0492 163.768ZM91.7292 160.696V158.968H80.6892V160.696H91.7292ZM88.8972 157.888V156.136H83.6412V157.888H88.8972ZM88.2492 164.248C88.2492 165.04 87.2892 165.424 86.1852 165.424C85.1052 165.424 84.1212 165.04 84.1212 164.248C84.1212 163.48 85.1052 163.072 86.1852 163.072C87.2892 163.072 88.2492 163.48 88.2492 164.248Z" fill="white"/>
<path d="M95.5193 146.896V148.792H103.823C103.415 153.616 99.7914 158.272 94.5114 160.792L95.9034 162.52C101.999 159.208 106.127 153.976 106.271 146.896H95.5193ZM112.799 166.84V144.52H110.543V166.84H112.799Z" fill="white"/>
<path d="M135.429 166.84V144.52H133.269V166.84H135.429ZM124.605 154.096C124.605 157.576 123.693 160 121.893 160C120.117 160 119.205 157.576 119.205 154.096C119.205 150.616 120.117 148.192 121.893 148.192C123.693 148.192 124.605 150.616 124.605 154.096ZM121.893 146.272C118.557 146.272 116.973 149.632 116.973 154.072C116.973 158.536 118.557 161.92 121.893 161.92C124.965 161.92 126.573 159.04 126.789 155.08H128.949V165.784H131.109V144.952H128.949V153.232H126.789C126.597 149.224 125.013 146.272 121.893 146.272Z" fill="white"/>
<path d="M164.762 152.968C161.138 152.608 156.65 149.728 156.65 146.608V145.192H154.274V146.608C154.274 149.728 150.242 152.464 146.21 152.992L147.218 154.84C150.602 154.192 154.442 151.96 155.45 149.488C156.602 151.96 160.394 154.192 163.682 154.816L164.762 152.968ZM156.53 166.864V158.848H165.53V157.024H145.37V158.848H154.274V166.864H156.53Z" fill="white"/>
<path d="M187.608 164.008V162.16H178.608V156.928H185.352V155.08H172.104V148.168H185.232V146.32H169.848V156.928H176.352V162.16H167.448V164.008H187.608Z" fill="white"/>
<path d="M207.797 150.664C207.797 147.64 205.301 145.504 202.133 145.504C198.965 145.504 196.493 147.664 196.493 150.688C196.493 153.76 199.061 155.752 202.157 155.752C205.301 155.752 207.797 153.688 207.797 150.664ZM206.429 166.528V157.84H204.293V160.504H200.837V157.864H198.701V166.528H206.429ZM205.565 150.664C205.565 152.416 204.221 153.808 202.157 153.808C200.189 153.808 198.725 152.464 198.725 150.664C198.725 148.84 200.237 147.448 202.133 147.448C204.221 147.448 205.565 148.864 205.565 150.664ZM214.565 156.616V144.52H212.309V149.704H208.733V151.552H212.309V156.616H214.565ZM216.581 165.304C214.181 164.272 212.789 161.752 212.789 159.448V157.72H210.605V159.448C210.605 161.824 209.285 164.32 206.789 165.4L208.157 166.936C209.789 166.072 211.277 164.344 211.661 163.024C212.141 164.296 213.749 166.12 215.213 166.888L216.581 165.304ZM204.293 164.8H200.837V162.184H204.293V164.8Z" fill="white"/>
<path d="M228.339 154.096C228.339 157.528 227.163 160.024 224.883 160.024C222.603 160.024 221.427 157.528 221.427 154.096C221.427 150.64 222.603 148.144 224.883 148.144C227.163 148.144 228.339 150.64 228.339 154.096ZM219.123 154.072C219.123 158.512 220.923 161.968 224.883 161.968C228.843 161.968 230.595 158.512 230.595 154.096C230.595 149.656 228.843 146.2 224.883 146.2C220.923 146.2 219.123 149.656 219.123 154.072ZM236.739 166.84V144.52H234.483V166.84H236.739Z" fill="white"/>
<path d="M255.848 155.536H250.304V151.624H255.848V155.536ZM265.976 166.144V164.296H253.232V159.328H250.976V166.144H265.976ZM265.448 144.52H263.192V148.192H259.328V150.064H263.192V153.088H259.328V154.96H263.192V160.768H265.448V144.52ZM258.104 157.36V145.96H255.848V149.824H250.304V145.984H248.048V157.36H258.104Z" fill="white"/>
<path d="M278.838 157.6C278.838 159.256 277.638 160.408 275.814 160.408C274.062 160.408 272.79 159.256 272.79 157.6C272.79 155.944 274.086 154.768 275.814 154.768C277.542 154.768 278.838 155.944 278.838 157.6ZM281.07 157.6C281.07 154.936 278.982 152.896 275.814 152.896C272.646 152.896 270.534 154.984 270.534 157.6C270.534 160.288 272.646 162.28 275.814 162.28C278.982 162.28 281.07 160.24 281.07 157.6ZM282.318 151.648V149.824H269.094V151.648H282.318ZM279.078 147.808V145.96H272.406V147.808H279.078ZM289.998 155.704V153.808H286.446V144.52H284.19V166.84H286.446V155.704H289.998Z" fill="white"/>
<path d="M309.22 153.256V151.408H296.308V145.432H294.052V153.256H309.22ZM309.316 166.336V164.488H296.236V159.736H293.98V166.336H309.316ZM311.452 157.72V155.872H291.292V157.72H311.452Z" fill="white"/>
<path d="M336.249 144.52V166.84H338.505V144.52H336.249ZM333.849 159.832C330.681 158.128 328.185 154.696 328.185 150.376V148.6H333.177V146.752H320.793V148.6H325.857V150.4C325.857 154.744 323.409 158.416 320.001 160.384L321.441 162.04C324.081 160.48 326.385 157.6 327.033 154.984C327.729 157.456 330.369 160.264 332.505 161.512L333.849 159.832Z" fill="white"/>
<path d="M359.767 166.528V158.56H344.743V166.528H359.767ZM344.815 145.84V147.664H357.367C357.367 149.344 357.127 152.368 356.743 154.048H342.175V155.872H362.335V154.048H358.951C359.407 151.792 359.671 148.744 359.671 145.84H344.815ZM357.511 164.728H346.999V160.36H357.511V164.728Z" fill="white"/>
<path d="M386.436 156.016H375.684V151.96H386.436V156.016ZM388.692 157.864V146.08H386.436V150.136H375.684V146.08H373.428V157.864H379.884V162.256H370.98V164.104H391.14V162.256H382.14V157.864H388.692Z" fill="white"/>
<path d="M410.29 144.52H408.058V166.84H410.29V155.104H413.77V153.232H410.29V144.52ZM396.25 159.496V148.72H404.554V146.872H394.018V161.392H396.514C400.57 161.368 404.41 161.104 406.738 160.624L406.474 158.776C404.218 159.28 400.114 159.496 397.186 159.496H396.25Z" fill="white"/>
<path d="M437.942 154.36V166.84H440.198V144.52H437.942V152.464H433.43V154.36H437.942ZM435.47 160.336C432.326 158.584 429.734 155.176 429.734 150.856V148.696H434.654V146.848H422.318V148.696H427.406V150.88C427.406 155.104 424.91 158.872 421.478 160.84L422.942 162.496C425.606 160.84 427.91 158.008 428.582 155.464C429.326 157.936 431.99 160.768 434.15 162.04L435.47 160.336Z" fill="white"/>
<path d="M456.972 151.552C456.972 148.36 454.428 146.296 451.116 146.296C447.852 146.296 445.308 148.48 445.308 151.552C445.308 154.576 447.828 156.64 451.116 156.64C454.38 156.64 456.972 154.648 456.972 151.552ZM460.188 144.52V166.84H462.42V144.52H460.188ZM454.74 151.528C454.74 153.472 453.06 154.744 451.116 154.744C449.148 154.744 447.54 153.448 447.54 151.528C447.54 149.608 449.148 148.192 451.116 148.192C453.132 148.192 454.74 149.488 454.74 151.528ZM458.748 159.4C456.972 159.616 454.332 159.784 451.188 159.904C448.548 160.048 445.932 160.072 443.796 160.072L444.156 161.992C445.932 161.968 448.284 161.92 450.828 161.8C453.66 161.656 456.948 161.44 458.988 161.176L458.748 159.4Z" fill="white"/>
<path d="M488.225 155.296H477.401V148.336H488.225V155.296ZM492.905 164.008V162.16H483.905V157.144H490.481V146.512H475.145V157.144H481.649V162.16H472.745V164.008H492.905Z" fill="white"/>
<path d="M510.159 164.728H499.647V162.304H510.159V164.728ZM512.415 166.552V158.032H510.159V160.504H499.647V158.056H497.391V166.552H512.415ZM514.983 156.592V154.744H494.823V156.592H514.983ZM513.975 151.408C510.711 151.144 506.079 148.72 506.079 145.528V144.832H503.751V145.528C503.751 148.72 499.431 151 495.879 151.384L496.863 153.16C500.223 152.584 503.871 150.616 504.903 148.24C506.007 150.592 509.751 152.632 512.943 153.184L513.975 151.408Z" fill="white"/>
<path d="M527.005 146.632C530.317 146.632 532.405 147.496 532.405 148.768C532.405 150.04 530.317 150.904 527.005 150.904C523.717 150.904 521.653 150.04 521.653 148.768C521.653 147.496 523.717 146.632 527.005 146.632ZM534.733 148.768C534.733 146.248 531.853 144.832 527.005 144.832C522.205 144.832 519.301 146.248 519.301 148.768C519.301 151.288 522.205 152.704 527.005 152.704C531.853 152.704 534.733 151.288 534.733 148.768ZM535.381 166.672V164.8H521.461V162.904H534.541V157.768H519.157V159.616H532.285V161.2H519.205V166.672H535.381ZM537.061 155.872V154.048H516.901V155.872H537.061Z" fill="white"/>
<path d="M558.498 158.728C556.002 159.256 552.474 159.472 548.898 159.472V148.528H557.082V146.68H546.642V161.344H548.922C553.05 161.344 556.434 161.032 558.81 160.528L558.498 158.728ZM563.994 166.84V144.52H561.738V152.44H555.402V154.36H561.738V166.84H563.994Z" fill="white"/>
<path d="M595.079 151.336V149.464H591.743V144.52H589.487V155.944H591.743V151.336H595.079ZM574.871 147.712H579.671C579.647 150.832 576.839 153.472 573.959 154.528L575.303 156.28C577.607 155.344 580.127 153.184 580.847 151.048C581.783 153.088 584.135 154.912 586.127 155.704L587.375 153.904C584.879 153.136 582.023 150.856 581.975 147.712H586.727V145.888H574.871V147.712ZM592.535 166.672V164.824H579.743V162.664H591.743V157.096H577.463V158.944H589.487V160.96H577.487V166.672H592.535Z" fill="white"/>
<path d="M622.419 166.672V164.824H609.411V162.712H621.627V157.168H607.011V158.992H619.371V161.032H607.155V166.672H622.419ZM616.275 153.688C613.827 152.896 610.971 150.64 610.971 147.064V145.336H608.667V147.16C608.667 150.688 606.147 153.208 603.147 154.384L604.491 156.088C606.987 154.984 609.171 152.992 609.867 150.688C610.875 152.944 612.987 154.624 615.003 155.416L616.275 153.688ZM619.371 150.688V155.968H621.627V144.52H619.371V148.84H615.027V150.688H619.371Z" fill="white"/>
<path d="M634.442 154.624H628.658V148.048H634.442V154.624ZM636.698 156.424V146.248H626.402V156.424H636.698ZM637.802 149.848H641.45V152.632H637.802V154.456H641.45V158.2H643.706V144.52H641.45V148.048H637.802V149.848ZM636.242 160C639.602 160 641.546 160.936 641.546 162.496C641.546 164.056 639.602 164.968 636.242 164.968C632.954 164.968 630.986 164.056 630.986 162.496C630.986 160.936 632.954 160 636.242 160ZM643.85 162.496C643.85 159.832 641.114 158.128 636.242 158.128C631.418 158.128 628.658 159.832 628.658 162.496C628.658 165.16 631.418 166.84 636.242 166.84C641.114 166.84 643.85 165.16 643.85 162.496Z" fill="white"/>
<path d="M211.77 184.048V182.2H205.77V184.048H211.77ZM214.338 187.864V186.016H203.298V187.864H214.338ZM211.722 193.264C211.722 194.704 210.57 195.832 208.986 195.832C207.354 195.832 206.226 194.752 206.226 193.264C206.226 191.824 207.354 190.72 208.986 190.72C210.57 190.72 211.722 191.8 211.722 193.264ZM213.882 193.264C213.882 190.6 211.89 188.896 208.986 188.896C206.082 188.896 204.042 190.576 204.042 193.264C204.042 195.808 206.082 197.656 208.986 197.656C211.89 197.656 213.882 195.952 213.882 193.264ZM222.09 202.84V180.52H219.906V189.736H217.602V181H215.442V201.736H217.602V191.584H219.906V202.84H222.09Z" fill="white"/>
<path d="M244.48 187.24C241.456 187 237.52 185.68 236.728 183.184H243.52V181.384H227.248V183.184H234.088C233.368 185.704 229.816 187.024 226.36 187.288L227.32 189.04C230.992 188.584 234.448 186.976 235.384 184.912C236.536 186.952 240.04 188.56 243.472 189.04L244.48 187.24ZM243.808 202.648V200.776H229.936V199.024H242.992V193.792H236.464V191.92H245.464V190.072H225.304V191.92H234.208V193.792H227.68V195.616H240.736V197.32H227.68V202.648H243.808Z" fill="white"/>
<path d="M255.332 182.32V184.216H262.988C262.46 187.96 258.74 191.368 254.204 192.496L255.404 194.368C261.212 192.448 265.148 188.296 265.436 182.32H255.332ZM273.668 201.232C270.308 200.776 266.276 198.16 266.276 194.992V193.744H263.948V194.992C263.948 198.208 259.988 200.848 256.364 201.256L257.54 203.056C260.804 202.456 264.26 200.104 265.076 198.064C265.94 199.96 269.516 202.504 272.468 203.056L273.668 201.232ZM270.164 188.656V195.376H272.42V180.52H270.164V186.76H265.508V188.656H270.164Z" fill="white"/>
<path d="M286.195 190.096C286.195 193.528 285.019 196.024 282.739 196.024C280.459 196.024 279.283 193.528 279.283 190.096C279.283 186.64 280.459 184.144 282.739 184.144C285.019 184.144 286.195 186.64 286.195 190.096ZM276.979 190.072C276.979 194.512 278.779 197.968 282.739 197.968C286.699 197.968 288.451 194.512 288.451 190.096C288.451 185.656 286.699 182.2 282.739 182.2C278.779 182.2 276.979 185.656 276.979 190.072ZM294.595 202.84V180.52H292.339V202.84H294.595Z" fill="white"/>
<path d="M315.497 180.52H313.265V202.84H315.497V191.248H318.977V189.376H315.497V180.52ZM311.489 194.92C308.513 195.496 304.553 195.712 301.337 195.688V190.6H309.353V182.536H299.009V184.36H307.097V188.776H299.081V197.536H301.769C305.297 197.536 309.329 197.2 311.729 196.792L311.489 194.92Z" fill="white"/>
<path d="M338.229 190.888C336.285 189.976 333.813 187.744 333.813 184.432V181.792H331.629V184.48C331.629 187.744 329.373 190.384 326.925 191.728L328.269 193.36C330.237 192.256 332.205 190.048 332.757 188.272C333.405 189.856 335.493 191.824 337.029 192.592L338.229 190.888ZM338.469 196.168C341.733 196.168 343.797 197.104 343.797 198.568C343.797 200.032 341.733 200.944 338.469 200.944C335.253 200.944 333.213 200.032 333.213 198.568C333.213 197.104 335.253 196.168 338.469 196.168ZM345.933 194.488V180.52H343.749V186.304H341.253V180.928H339.093V193.336H341.253V188.152H343.749V194.488H345.933ZM346.149 198.568C346.149 195.952 343.293 194.32 338.469 194.32C333.693 194.32 330.837 195.952 330.837 198.568C330.837 201.16 333.693 202.792 338.469 202.792C343.293 202.792 346.149 201.16 346.149 198.568Z" fill="white"/>
<path d="M350.06 182.008V183.904H357.716C357.092 187.744 353.084 190.6 348.956 191.416L350.108 193.264C355.868 191.704 359.948 188.008 360.188 182.008H350.06ZM351.427 194.848V196.696H364.147V202.936H366.404V194.848H351.427ZM369.716 187.936V186.064H366.379V180.52H364.124V193.744H366.379V187.936H369.716Z" fill="white"/>
<path d="M380.634 190.168C380.634 191.296 379.266 192.04 377.706 192.04C376.146 192.04 374.754 191.296 374.754 190.168C374.754 189.016 376.122 188.272 377.706 188.272C379.266 188.272 380.634 189.016 380.634 190.168ZM382.866 190.168C382.866 187.984 380.778 186.568 377.706 186.568C374.61 186.568 372.546 187.984 372.546 190.168C372.546 192.304 374.61 193.744 377.706 193.744C380.778 193.744 382.866 192.28 382.866 190.168ZM384.09 185.656V183.88H371.106V185.656H384.09ZM380.778 182.512V180.712H374.442V182.512H380.778ZM386.226 200.776H376.554V198.52H386.226V200.776ZM388.458 202.6V194.512H386.226V196.72H376.554V194.536H374.298V202.6H388.458ZM391.794 188.68V186.808H388.458V180.52H386.226V193.408H388.458V188.68H391.794Z" fill="white"/>
<path d="M407.248 194.416C404.68 195.016 399.856 195.376 396.904 195.376V182.848H394.648V197.32H396.736C399.904 197.272 404.92 196.888 407.536 196.24L407.248 194.416ZM411.592 180.52H409.36V202.84H411.592V180.52Z" fill="white"/>
<path d="M432.614 180.52H430.382V202.84H432.614V191.104H436.094V189.232H432.614V180.52ZM418.574 195.496V184.72H426.878V182.872H416.342V197.392H418.838C422.894 197.368 426.734 197.104 429.062 196.624L428.798 194.776C426.542 195.28 422.438 195.496 419.51 195.496H418.574Z" fill="white"/>
<path d="M437.628 200.56H440.1V198.064H437.628V200.56Z" fill="white"/>
</svg>
