<svg width="555" height="76" viewBox="0 0 555 76" fill="none" xmlns="http://www.w3.org/2000/svg">
<path fill-rule="evenodd" clip-rule="evenodd" d="M555 1H0V0H555V1ZM555 75H0V76H555V75Z" fill="white"/>
<path d="M101.658 45.58V38.22C103.718 38.12 105.778 37.94 107.278 37.76L107.058 36.26C106.318 36.34 105.538 36.42 104.698 36.48C105.038 34.44 105.238 31.76 105.238 29.06H95.998V30.58H103.318C103.318 32.62 103.178 34.8 102.838 36.6C102.278 36.64 101.698 36.66 101.078 36.68C98.978 36.76 96.798 36.8 94.598 36.8L94.898 38.44C96.438 38.42 98.078 38.4 99.778 38.32V45.58H101.658ZM110.198 27.6H108.318V46.2H110.198V27.6Z" fill="white"/>
<path d="M128.916 46.2V27.6H127.116V46.2H128.916ZM119.896 35.58C119.896 38.48 119.136 40.5 117.636 40.5C116.156 40.5 115.396 38.48 115.396 35.58C115.396 32.68 116.156 30.66 117.636 30.66C119.136 30.66 119.896 32.68 119.896 35.58ZM117.636 29.06C114.856 29.06 113.536 31.86 113.536 35.56C113.536 39.28 114.856 42.1 117.636 42.1C120.196 42.1 121.536 39.7 121.716 36.4H123.516V45.32H125.316V27.96H123.516V34.86H121.716C121.556 31.52 120.236 29.06 117.636 29.06Z" fill="white"/>
<path d="M144.72 35.18H139.84V32.54H144.72V35.18ZM146.6 36.72V28.42H144.72V31.04H139.84V28.44H137.96V36.72H146.6ZM153.12 46.06V44.52H142.24V42.76H152.46V38.22H140.34V39.74H150.58V41.34H140.36V46.06H153.12ZM150.58 33.2V37.3H152.46V27.6H150.58V31.62H147.66V33.2H150.58Z" fill="white"/>
<path d="M164.099 39.6C162.159 40 159.879 40.1 157.979 40.1V36.16H163.019V29.7H156.059V31.24H161.139V34.62H156.099V41.66H157.659C160.039 41.64 162.579 41.5 164.319 41.14L164.099 39.6ZM167.799 45.28V28.02H165.999V34.64H163.759V36.18H165.999V45.28H167.799ZM171.319 46.2V27.6H169.499V46.2H171.319Z" fill="white"/>
<path d="M188.357 27.6H186.497V46.2H188.357V36.78H191.337V35.22H188.357V27.6ZM174.837 29.58V31.16H181.457C181.117 35.18 178.417 39.06 174.017 41.16L175.177 42.6C180.257 39.84 183.357 35.48 183.477 29.58H174.837Z" fill="white"/>
<path d="M212.801 34.06V32.54H201.901V29.94H212.621V28.42H200.021V34.06H212.801ZM213.221 46.04V44.5H201.741V42.82H212.561V38.44H199.801V39.96H210.681V41.4H199.861V46.04H213.221ZM214.801 37V35.48H198.001V37H214.801Z" fill="white"/>
<path d="M224.16 35.5C224.16 38.36 223.16 40.44 221.28 40.44C219.38 40.44 218.42 38.36 218.42 35.5C218.42 32.62 219.38 30.54 221.28 30.54C223.16 30.54 224.16 32.62 224.16 35.5ZM216.5 35.48C216.5 39.18 217.98 42.06 221.28 42.06C224.34 42.06 225.8 39.56 226 36.24H229.78V46.2H231.66V27.6H229.78V34.64H226C225.78 31.36 224.3 28.92 221.28 28.92C217.98 28.92 216.5 31.8 216.5 35.48Z" fill="white"/>
<path d="M235.538 28.76V30.32H241.858C241.218 33.2 238.478 35.44 234.638 36.28L235.578 37.8C239.898 36.58 243.678 33.8 243.978 28.76H235.538ZM249.798 46.06V44.52H239.218V42.7H249.158V38H237.258V39.54H247.278V41.24H237.338V46.06H249.798ZM251.938 33.18V31.62H249.158V27.6H247.278V37.06H249.158V33.18H251.938Z" fill="white"/>
<path d="M267.796 27.6H265.936V46.2H267.796V36.8H270.556V35.24H267.796V27.6ZM259.296 29.6V31.18H261.836C261.836 34.52 260.716 39.12 257.776 42.08L259.316 43.14C262.636 39.18 263.636 35.1 263.656 29.6H259.296ZM253.556 29.6V31.18H256.736C256.696 34.36 255.216 38.42 252.516 40.9L253.976 42C257.036 38.76 258.556 34.72 258.556 29.6H253.556Z" fill="white"/>
<path d="M286.5 46.22V39.96H294V38.42H277.2V39.96H284.62V46.22H286.5ZM290.04 34.66H281.14V30.16H290.04V34.66ZM291.92 36.18V28.64H279.26V36.18H291.92Z" fill="white"/>
<path d="M306.799 40.36C304.179 38.74 302.099 35.8 302.099 32.32V29.2H300.159V32.4C300.159 35.82 298.179 39.06 295.379 40.82L296.559 42.22C298.659 40.82 300.499 38.46 301.139 36.2C301.839 38.36 304.019 40.68 305.679 41.76L306.799 40.36ZM310.939 46.2V27.6H309.059V34.12H304.899V35.72H309.059V46.2H310.939Z" fill="white"/>
<path d="M322.997 32.38C322.997 33.76 321.717 34.68 320.017 34.68C318.377 34.68 317.097 33.76 317.097 32.38C317.097 30.94 318.397 30.04 320.017 30.04C321.697 30.04 322.997 30.94 322.997 32.38ZM320.877 45.64V39.04C322.857 38.94 324.977 38.8 326.357 38.62L326.177 37.16C324.437 37.36 322.417 37.46 319.997 37.58C317.937 37.64 315.857 37.68 313.697 37.68L313.977 39.28C315.557 39.24 317.217 39.22 318.997 39.14V45.64H320.877ZM329.397 46.2V27.6H327.517V40.26H323.417V41.74H327.517V46.2H329.397ZM324.917 32.4C324.917 30.04 322.937 28.42 320.017 28.42C317.157 28.42 315.157 30.04 315.157 32.4C315.157 34.68 317.157 36.28 320.017 36.28C322.897 36.28 324.917 34.68 324.917 32.4Z" fill="white"/>
<path d="M344.861 45.58V38.22C346.921 38.12 348.981 37.94 350.481 37.76L350.261 36.26C349.521 36.34 348.741 36.42 347.901 36.48C348.241 34.44 348.441 31.76 348.441 29.06H339.201V30.58H346.521C346.521 32.62 346.381 34.8 346.041 36.6C345.481 36.64 344.901 36.66 344.281 36.68C342.181 36.76 340.001 36.8 337.801 36.8L338.101 38.44C339.641 38.42 341.281 38.4 342.981 38.32V45.58H344.861ZM353.401 27.6H351.521V46.2H353.401V27.6Z" fill="white"/>
<path d="M371.54 34.88V33.46H360.4V32.22H371.16V28.24H358.54V29.64H369.28V30.94H358.52V34.88H371.54ZM371.86 45.86V44.42H360.2V43.06H371.26V38.94H358.32V40.36H369.38V41.74H358.32V45.86H371.86ZM373.2 37.64V36.2H356.4V37.64H373.2Z" fill="white"/>
<path d="M397.203 37.76V36.22H389.983V32.6H388.103V36.22H380.403V37.76H397.203ZM382.343 39.84V41.38H393.103V46.28H394.983V39.84H382.343ZM389.123 28.26V29.78H393.363C393.363 31.38 393.283 33.18 392.823 34.46L394.663 34.76C395.183 33.08 395.283 30.88 395.283 28.26H389.123ZM381.863 28.26V29.78H385.683C385.663 31.38 385.283 33.28 384.783 34.4L386.623 34.74C387.203 33.16 387.603 30.82 387.603 28.26H381.863Z" fill="white"/>
<path d="M421.547 33.8V32.24H418.767V27.6H416.887V38.5H418.767V33.8H421.547ZM412.107 35.66H406.927V30.4H412.107V35.66ZM413.987 37.16V28.9H405.067V37.16H413.987ZM418.787 46.22V39.48H406.727V41H416.907V46.22H418.787Z" fill="white"/>
<path d="M439.606 43.48V41.94H431.086V35.68H429.206V41.94H422.806V43.48H439.606ZM437.426 29.32H424.546V30.86H435.506V33.08C435.506 35.28 435.246 37.88 434.826 39.46L436.646 39.76C437.186 37.52 437.386 35.14 437.426 32.18V29.32Z" fill="white"/>
<path d="M446.87 30.46H451.03V30.88C451.03 33.48 448.79 35.9 446.37 36.78L447.49 38.24C449.41 37.46 451.41 35.52 452.01 33.74C452.79 35.44 454.75 37.08 456.41 37.74L457.45 36.24C455.35 35.6 452.95 33.48 452.95 30.84V30.46H457.01V28.94H446.87V30.46ZM463.95 33.76V32.2H461.17V27.6H459.29V38.02H461.17V33.76H463.95ZM463.49 44.94C461.69 44.28 459.93 42.22 459.93 39.92V38.96H458.07V39.98C458.07 42.26 456.51 44.26 454.43 45.26L455.65 46.52C457.17 45.8 458.61 44.1 459.01 42.76C459.47 44.06 461.09 45.68 462.33 46.28L463.49 44.94ZM455.65 43.36C454.29 42.84 453.05 41.56 453.05 39.72V38.96H451.19V39.82C451.19 42.12 449.43 44.1 447.49 44.98L448.61 46.3C450.17 45.58 451.79 43.8 452.23 42.4C452.63 43.3 453.57 44.22 454.39 44.62L455.65 43.36Z" fill="white"/>
<path d="M479.568 27.6H477.708V46.2H479.568V36.42H482.468V34.86H479.568V27.6ZM467.868 40.08V31.1H474.788V29.56H466.008V41.66H468.088C471.468 41.64 474.668 41.42 476.608 41.02L476.388 39.48C474.508 39.9 471.088 40.08 468.648 40.08H467.868Z" fill="white"/>
<path d="M483.747 44.3H485.807V42.22H483.747V44.3Z" fill="white"/>
</svg>
