<svg width="555" height="94" viewBox="0 0 555 94" fill="none" xmlns="http://www.w3.org/2000/svg">
<mask id="path-1-inside-1_35_18" fill="white">
<path d="M0 0H555V85H0V0Z"/>
</mask>
<path d="M0 1H555V-1H0V1ZM555 84H0V86H555V84Z" fill="white" mask="url(#path-1-inside-1_35_18)"/>
<path d="M192.622 31.4V29.94H186.622V31.4H192.622ZM193.222 36.18C193.222 36.84 191.862 37.08 189.542 37.08C187.162 37.08 185.862 36.84 185.862 36.18C185.862 35.52 187.162 35.28 189.542 35.28C191.862 35.28 193.222 35.52 193.222 36.18ZM196.622 33.52V32.1H182.622V33.52H196.622ZM198.002 29.22V27.7H190.502V25.46H188.622V27.7H181.202V29.22H198.002ZM195.082 36.18C195.082 34.88 193.642 34 189.542 34C185.382 34 183.962 34.88 183.962 36.18C183.962 37.48 185.382 38.36 189.542 38.36C193.642 38.36 195.082 37.48 195.082 36.18ZM197.142 25.32C194.642 25.14 191.462 24.24 190.742 22.24H196.322V20.72H182.822V22.24H188.502C187.862 24.24 184.922 25.12 182.142 25.32L182.942 26.78C185.902 26.44 188.782 25.32 189.602 23.58C190.522 25.32 193.542 26.46 196.302 26.82L197.142 25.32ZM207.461 27.5C207.461 30.36 206.481 32.44 204.601 32.44C202.741 32.44 201.781 30.36 201.781 27.5C201.781 24.62 202.741 22.54 204.601 22.54C206.481 22.54 207.461 24.62 207.461 27.5ZM199.881 27.48C199.881 31.18 201.341 34.06 204.601 34.06C207.881 34.06 209.321 31.18 209.321 27.5C209.321 23.8 207.881 20.92 204.601 20.92C201.341 20.92 199.881 23.8 199.881 27.48ZM216.941 28.54V26.98H213.961V19.6H212.081V38.2H213.961V28.54H216.941ZM226.019 30.5C226.019 31.88 225.019 32.84 223.499 32.84C222.039 32.84 220.979 31.88 220.979 30.5C220.979 29.12 222.059 28.14 223.499 28.14C224.939 28.14 226.019 29.12 226.019 30.5ZM227.879 30.5C227.879 28.28 226.139 26.58 223.499 26.58C220.859 26.58 219.099 28.32 219.099 30.5C219.099 32.74 220.859 34.4 223.499 34.4C226.139 34.4 227.879 32.7 227.879 30.5ZM228.919 25.54V24.02H217.899V25.54H228.919ZM226.219 22.34V20.8H220.659V22.34H226.219ZM235.319 28.92V27.34H232.359V19.6H230.479V38.2H232.359V28.92H235.319ZM251.338 26.88V25.34H240.578V20.36H238.698V26.88H251.338ZM251.418 37.78V36.24H240.518V32.28H238.638V37.78H251.418ZM253.198 30.6V29.06H236.398V30.6H253.198ZM275.302 29.98V28.46H264.262V21.14H262.382V29.98H267.822V34.24H260.402V35.76H277.202V34.24H269.702V29.98H275.302ZM294.52 38.2V19.6H292.7V26.98H290.54V20H288.74V37.28H290.54V28.52H292.7V38.2H294.52ZM287.6 31.62C285.68 32.02 283.1 32.18 281.2 32.18V28.14H286.66V21.5H279.28V23.04H284.78V26.6H279.32V33.72H280.68C283.08 33.72 285.98 33.48 287.84 33.12L287.6 31.62ZM311.558 19.6H309.698V38.2H311.558V28.78H314.538V27.22H311.558V19.6ZM298.038 21.58V23.16H304.658C304.318 27.18 301.618 31.06 297.218 33.16L298.378 34.6C303.458 31.84 306.558 27.48 306.678 21.58H298.038ZM330.502 28.24C328.882 27.48 326.822 25.62 326.822 22.86V20.66H325.002V22.9C325.002 25.62 323.122 27.82 321.082 28.94L322.202 30.3C323.842 29.38 325.482 27.54 325.942 26.06C326.482 27.38 328.222 29.02 329.502 29.66L330.502 28.24ZM330.702 32.64C333.422 32.64 335.142 33.42 335.142 34.64C335.142 35.86 333.422 36.62 330.702 36.62C328.022 36.62 326.322 35.86 326.322 34.64C326.322 33.42 328.022 32.64 330.702 32.64ZM336.922 31.24V19.6H335.102V24.42H333.022V19.94H331.222V30.28H333.022V25.96H335.102V31.24H336.922ZM337.102 34.64C337.102 32.46 334.722 31.1 330.702 31.1C326.722 31.1 324.342 32.46 324.342 34.64C324.342 36.8 326.722 38.16 330.702 38.16C334.722 38.16 337.102 36.8 337.102 34.64ZM340.461 21.58V23.16H347.381C347.041 27.18 344.021 31.06 339.621 33.16L340.781 34.6C345.861 31.84 349.301 27.48 349.421 21.58H340.461ZM354.861 38.2V19.6H352.981V38.2H354.861ZM365.599 28.5H360.719V22.74H365.599V28.5ZM373.659 37.62V36.08H363.079V31.9H361.199V37.62H373.659ZM371.379 24.22V26.8H368.359V28.32H371.379V33.1H373.259V19.6H371.379V22.7H368.359V24.22H371.379ZM367.459 30V21.24H358.859V30H367.459ZM205.144 58.54V56.98H202.164V49.6H200.284V68.2H202.164V58.54H205.144ZM195.224 62.02H190.284V53H195.224V62.02ZM197.104 63.54V51.46H188.404V63.54H197.104ZM223.002 65.74V64.2H206.202V65.74H223.002ZM221.402 61.26V59.72H210.182V56.82H220.922V51.12H208.302V52.64H219.042V55.28H208.302V61.26H221.402ZM241.401 65.48V63.94H232.881V57.68H231.001V63.94H224.601V65.48H241.401ZM239.221 51.32H226.341V52.86H237.301V55.08C237.301 57.28 237.041 59.88 236.621 61.46L238.441 61.76C238.981 59.52 239.181 57.14 239.221 54.18V51.32ZM251.165 57.08V52.34H257.685V50.82H249.305V58.6H251.165C254.425 58.58 257.385 58.34 259.345 57.96L259.065 56.46C257.165 56.86 253.945 57.08 251.485 57.08H251.165ZM256.385 66.28C255.285 66.56 253.745 66.66 251.925 66.66V64.98H255.845V60.66H250.085V62.06H254.065V63.64H250.145V68.06H252.645C254.225 68 255.665 67.9 256.605 67.7L256.385 66.28ZM263.305 66.14C263.305 64.8 262.045 63.86 260.245 63.86C258.425 63.86 257.165 64.78 257.165 66.12C257.165 67.46 258.425 68.36 260.245 68.36C262.045 68.36 263.305 67.48 263.305 66.14ZM265.745 55.24V53.68H262.965V49.6H261.085V58.96H262.965V55.24H265.745ZM263.945 63.36V61.94H256.505V63.36H263.945ZM262.305 61.22V59.84H258.205V61.22H262.305ZM261.665 66.12C261.665 66.68 261.025 67.06 260.245 67.06C259.465 67.06 258.805 66.68 258.805 66.12C258.805 65.56 259.465 65.14 260.245 65.14C261.025 65.14 261.665 65.56 261.665 66.12ZM283.803 65.84V64.3H276.303V59.94H281.923V58.4H270.883V52.64H281.823V51.1H269.003V59.94H274.423V64.3H267.003V65.84H283.803ZM287.242 62.68V64.2H298.242V68.28H300.122V62.68H287.242ZM300.482 57.9V56.44H289.382V54.72H300.062V50.24H287.462V51.7H298.182V53.32H287.502V57.9H292.822V59.7H285.402V61.24H302.202V59.7H294.702V57.9H300.482ZM324.205 56.38V54.86H313.385V51.68H324.025V50.14H311.505V56.38H324.205ZM326.205 59.84V58.3H309.405V59.84H326.205ZM324.245 67.96V66.42H313.305V63.26H324.045V61.72H311.425V67.96H324.245ZM342.744 56.88V55.34H331.984V50.36H330.104V56.88H342.744ZM342.824 67.78V66.24H331.924V62.28H330.044V67.78H342.824ZM344.604 60.6V59.06H327.804V60.6H344.604ZM360.562 49.6H358.702V68.2H360.562V58.42H363.462V56.86H360.562V49.6ZM348.862 62.08V53.1H355.782V51.56H347.002V63.66H349.082C352.462 63.64 355.662 63.42 357.602 63.02L357.382 61.48C355.502 61.9 352.082 62.08 349.642 62.08H348.862ZM364.741 66.3H366.801V64.22H364.741V66.3Z" fill="white"/>
</svg>
