<svg width="405" height="50" viewBox="0 0 405 50" fill="none" xmlns="http://www.w3.org/2000/svg">
<path d="M7.95649 8.5C7.95649 11.36 6.95648 13.44 5.07648 13.44C3.17648 13.44 2.21648 11.36 2.21648 8.5C2.21648 5.62 3.17648 3.54 5.07648 3.54C6.95648 3.54 7.95649 5.62 7.95649 8.5ZM0.296484 8.48C0.296484 12.18 1.77648 15.06 5.07648 15.06C8.13648 15.06 9.59649 12.56 9.79649 9.24H13.5765V19.2H15.4565V0.599999H13.5765V7.64H9.79649C9.57648 4.36 8.09649 1.92 5.07648 1.92C1.77648 1.92 0.296484 4.8 0.296484 8.48ZM34.0949 14.14V0.599999H32.2749V5.6H29.1349V7.12H32.2749V14.14H34.0949ZM30.6149 9.2C29.5749 9.44 27.9149 9.58 26.6349 9.58V3.66H29.8949V2.14H24.7949V11.12C27.1749 11.12 29.4549 10.94 30.8549 10.64L30.6149 9.2ZM34.4949 18.62V17.1H23.7149V12.9H21.8349V18.62H34.4949ZM24.0749 9.18C23.1749 9.4 21.8749 9.52 20.8749 9.54V3.66H23.6749V2.14H19.0549V11.08C21.4149 11.08 23.1549 10.86 24.2949 10.6L24.0749 9.18ZM47.8788 2.82C49.6588 2.82 50.7788 3.92 50.7788 5.44C50.7788 6.9 49.6388 8 47.8788 8C46.2188 8 44.9788 6.96 44.9788 5.44C44.9788 3.92 46.2588 2.82 47.8788 2.82ZM47.8788 1.22C45.1988 1.22 43.1188 2.98 43.1188 5.46C43.1188 8 45.2588 9.58 47.8788 9.58C50.5388 9.58 52.6388 7.94 52.6388 5.44C52.6388 2.94 50.5388 1.22 47.8788 1.22ZM58.5188 19.06V17.52H47.6588V15.68H57.8588V11.02H45.7188V12.56H55.9788V14.28H45.7788V19.06H58.5188ZM57.8588 10.06V0.599999H55.9788V10.06H57.8588ZM69.4173 2.36C72.1773 2.36 73.9173 3.08 73.9173 4.14C73.9173 5.2 72.1773 5.92 69.4173 5.92C66.6773 5.92 64.9573 5.2 64.9573 4.14C64.9573 3.08 66.6773 2.36 69.4173 2.36ZM75.8573 4.14C75.8573 2.04 73.4573 0.859999 69.4173 0.859999C65.4173 0.859999 62.9973 2.04 62.9973 4.14C62.9973 6.24 65.4173 7.42 69.4173 7.42C73.4573 7.42 75.8573 6.24 75.8573 4.14ZM76.3973 19.06V17.5H64.7973V15.92H75.6973V11.64H62.8773V13.18H73.8173V14.5H62.9173V19.06H76.3973ZM77.7973 10.06V8.54H60.9973V10.06H77.7973ZM102.141 7.02V5.46H99.3612V0.599999H97.4812V11.94H99.3612V7.02H102.141ZM93.3412 13.46C96.0412 13.46 97.7012 14.24 97.7012 15.56C97.7012 16.88 96.0412 17.66 93.3412 17.66C90.6612 17.66 89.0212 16.88 89.0212 15.56C89.0212 14.24 90.6612 13.46 93.3412 13.46ZM99.6212 15.56C99.6212 13.32 97.2812 11.92 93.3412 11.92C89.4212 11.92 87.0812 13.32 87.0812 15.56C87.0812 17.8 89.4212 19.2 93.3412 19.2C97.2812 19.2 99.6212 17.8 99.6212 15.56ZM95.5612 8.98C93.4412 8.26 91.1612 6.1 91.1612 3.16V1.46H89.2412V3.24C89.2412 6.16 87.2812 8.4 84.6212 9.54L85.7812 11.02C87.8012 10.06 89.6812 8.32 90.2412 6.36C91.0212 8.18 92.7812 9.7 94.4612 10.46L95.5612 8.98ZM120.54 7.02V5.46H117.76V0.599999H115.88V11.94H117.76V7.02H120.54ZM111.74 13.46C114.44 13.46 116.1 14.24 116.1 15.56C116.1 16.88 114.44 17.66 111.74 17.66C109.06 17.66 107.42 16.88 107.42 15.56C107.42 14.24 109.06 13.46 111.74 13.46ZM118.02 15.56C118.02 13.32 115.68 11.92 111.74 11.92C107.82 11.92 105.48 13.32 105.48 15.56C105.48 17.8 107.82 19.2 111.74 19.2C115.68 19.2 118.02 17.8 118.02 15.56ZM113.96 8.98C111.84 8.26 109.56 6.1 109.56 3.16V1.46H107.64V3.24C107.64 6.16 105.68 8.4 103.02 9.54L104.18 11.02C106.2 10.06 108.08 8.32 108.64 6.36C109.42 8.18 111.18 9.7 112.86 10.46L113.96 8.98ZM129.818 11.5C129.818 12.88 128.818 13.84 127.298 13.84C125.838 13.84 124.778 12.88 124.778 11.5C124.778 10.12 125.858 9.14 127.298 9.14C128.738 9.14 129.818 10.12 129.818 11.5ZM131.678 11.5C131.678 9.28 129.938 7.58 127.298 7.58C124.658 7.58 122.898 9.32 122.898 11.5C122.898 13.74 124.658 15.4 127.298 15.4C129.938 15.4 131.678 13.7 131.678 11.5ZM132.718 6.54V5.02H121.698V6.54H132.718ZM130.018 3.34V1.8H124.458V3.34H130.018ZM139.118 9.92V8.34H136.158V0.599999H134.278V19.2H136.158V9.92H139.118ZM147.796 9.5H142.916V3.74H147.796V9.5ZM155.856 18.62V17.08H145.276V12.9H143.396V18.62H155.856ZM153.576 5.22V7.8H150.556V9.32H153.576V14.1H155.456V0.599999H153.576V3.7H150.556V5.22H153.576ZM149.656 11V2.24H141.056V11H149.656ZM179.46 10.16V0.599999H177.58V4.72H174.18V6.26H177.58V10.16H179.46ZM164.62 3.12H168.82V3.38C168.82 5.98 166.42 8.28 164 9.16L165.06 10.64C166.98 9.86 169.2 7.96 169.8 6.18C170.58 7.88 172.54 9.4 174.2 10.06L175.24 8.56C173.14 7.92 170.74 5.98 170.74 3.34V3.12H174.8V1.6H164.62V3.12ZM180.12 19.06V17.52H169.3V15.72H179.46V11.08H167.36V12.62H177.58V14.3H167.42V19.06H180.12ZM185.059 12.94V4.42H190.439V2.9H183.179V14.52H184.959C187.279 14.52 189.959 14.34 191.579 14L191.339 12.44C189.879 12.76 187.559 12.94 185.399 12.94H185.059ZM198.319 19.2V0.599999H196.499V7.74H194.279V0.999999H192.479V18.28H194.279V9.28H196.499V19.2H198.319ZM214.943 8.58C214.943 11.44 213.963 13.52 212.063 13.52C210.163 13.52 209.183 11.44 209.183 8.58C209.183 5.7 210.163 3.62 212.063 3.62C213.963 3.62 214.943 5.7 214.943 8.58ZM207.263 8.56C207.263 12.26 208.763 15.14 212.063 15.14C215.363 15.14 216.823 12.26 216.823 8.58C216.823 4.88 215.363 2 212.063 2C208.763 2 207.263 4.88 207.263 8.56ZM221.943 19.2V0.599999H220.063V19.2H221.943ZM234.301 19.1V13.2H241.801V11.68H225.001V13.2H232.421V19.1H234.301ZM240.261 9.82V8.32H228.941V6.2H239.741V1.36H227.021V2.84H237.861V4.74H227.061V9.82H240.261ZM251.16 8.5C251.16 11.36 250.16 13.44 248.28 13.44C246.38 13.44 245.42 11.36 245.42 8.5C245.42 5.62 246.38 3.54 248.28 3.54C250.16 3.54 251.16 5.62 251.16 8.5ZM243.5 8.48C243.5 12.18 244.98 15.06 248.28 15.06C251.34 15.06 252.8 12.56 253 9.24H256.78V19.2H258.66V0.599999H256.78V7.64H253C252.78 4.36 251.3 1.92 248.28 1.92C244.98 1.92 243.5 4.8 243.5 8.48ZM280.864 0.599999V19.2H282.744V0.599999H280.864ZM278.864 13.36C276.224 11.94 274.144 9.08 274.144 5.48V4H278.304V2.46H267.984V4H272.204V5.5C272.204 9.12 270.164 12.18 267.324 13.82L268.524 15.2C270.724 13.9 272.644 11.5 273.184 9.32C273.764 11.38 275.964 13.72 277.744 14.76L278.864 13.36ZM299.262 0.599999V19.2H301.142V0.599999H299.262ZM297.262 13.36C294.622 11.94 292.542 9.08 292.542 5.48V4H296.702V2.46H286.382V4H290.602V5.5C290.602 9.12 288.562 12.18 285.722 13.82L286.922 15.2C289.122 13.9 291.042 11.5 291.582 9.32C292.162 11.38 294.362 13.72 296.142 14.76L297.262 13.36ZM319.566 5.96C319.566 3.34 317.466 1.48 314.786 1.48C312.126 1.48 310.026 3.4 310.026 6C310.026 8.64 312.126 10.36 314.806 10.36C317.466 10.36 319.566 8.58 319.566 5.96ZM324.766 17.04C324.766 15.48 323.146 14.68 321.286 14.68C319.406 14.68 317.806 15.48 317.806 17.04C317.806 18.58 319.406 19.4 321.286 19.4C323.146 19.4 324.766 18.58 324.766 17.04ZM317.666 5.96C317.666 7.58 316.546 8.72 314.806 8.72C313.086 8.72 311.926 7.58 311.926 5.96C311.926 4.36 313.086 3.14 314.786 3.14C316.566 3.14 317.666 4.38 317.666 5.96ZM326.946 6.2V4.64H324.166V0.599999H322.286V9.4H324.166V6.2H326.946ZM317.006 16.64C315.906 17 314.406 17.34 313.246 17.38V12.1H311.426V18.96C313.806 18.96 315.966 18.56 317.286 18.14L317.006 16.64ZM325.906 14.08V12.64H316.706V14.08H325.906ZM323.546 11.74V10.28H319.166V11.74H323.546ZM323.006 17.04C323.006 17.7 322.206 18.02 321.286 18.02C320.386 18.02 319.566 17.7 319.566 17.04C319.566 16.4 320.386 16.06 321.286 16.06C322.206 16.06 323.006 16.4 323.006 17.04ZM336.064 8.5C336.064 11.36 335.084 13.44 333.204 13.44C331.344 13.44 330.384 11.36 330.384 8.5C330.384 5.62 331.344 3.54 333.204 3.54C335.084 3.54 336.064 5.62 336.064 8.5ZM328.484 8.48C328.484 12.18 329.944 15.06 333.204 15.06C336.484 15.06 337.924 12.18 337.924 8.5C337.924 4.8 336.484 1.92 333.204 1.92C329.944 1.92 328.484 4.8 328.484 8.48ZM345.544 9.54V7.98H342.564V0.599999H340.684V19.2H342.564V9.54H345.544ZM357.803 13.36C355.183 11.74 353.103 8.8 353.103 5.32V2.2H351.163V5.4C351.163 8.82 349.183 12.06 346.383 13.82L347.563 15.22C349.663 13.82 351.503 11.46 352.143 9.2C352.843 11.36 355.023 13.68 356.683 14.76L357.803 13.36ZM361.943 19.2V0.599999H360.063V7.12H355.903V8.72H360.063V19.2H361.943ZM376.787 12.78H373.067V4.1H376.787V12.78ZM386.327 19.2V0.599999H384.507V7.94H382.467V0.999999H380.667V18.28H382.467V9.48H384.507V19.2H386.327ZM378.587 14.28V2.6H371.267V14.28H378.587ZM404.705 18.62V17.1H394.085V12.9H392.205V18.62H404.705ZM402.385 7.34V14.14H404.265V0.599999H402.385V5.78H399.485V7.34H402.385ZM396.545 9.76H391.645V6.7H396.545V9.76ZM398.425 11.3V1.8H396.545V5.18H391.645V1.82H389.765V11.3H398.425ZM91.2435 34.94C91.2435 36.04 90.1035 36.86 88.3235 36.86C86.5635 36.86 85.4035 36.04 85.4035 34.94C85.4035 33.82 86.5635 32.98 88.3235 32.98C90.1035 32.98 91.2435 33.84 91.2435 34.94ZM89.4235 44.08V40.68C91.2835 40.58 93.2235 40.42 94.4635 40.24L94.3235 38.82C92.5835 39.02 90.7435 39.14 88.3635 39.26C86.3235 39.34 84.3235 39.36 82.1835 39.36L82.4835 40.92C84.1035 40.88 85.7235 40.86 87.5435 40.78V44.08H89.4235ZM98.1635 48.72V47.2H86.5435V43.3H84.6635V48.72H98.1635ZM97.8035 44.9V30.6H95.9435V41.52H92.2835V42.92H95.9435V44.9H97.8035ZM93.2635 34.94C93.2635 32.82 91.2035 31.46 88.3235 31.46C85.4835 31.46 83.3835 32.82 83.3835 34.92C83.3835 37.06 85.4835 38.36 88.3235 38.36C91.2035 38.36 93.2635 37.04 93.2635 34.94ZM108.822 41.5C108.822 42.88 107.822 43.84 106.302 43.84C104.842 43.84 103.782 42.88 103.782 41.5C103.782 40.12 104.862 39.14 106.302 39.14C107.742 39.14 108.822 40.12 108.822 41.5ZM110.682 41.5C110.682 39.28 108.942 37.58 106.302 37.58C103.662 37.58 101.902 39.32 101.902 41.5C101.902 43.74 103.662 45.4 106.302 45.4C108.942 45.4 110.682 43.7 110.682 41.5ZM111.722 36.54V35.02H100.702V36.54H111.722ZM109.022 33.34V31.8H103.462V33.34H109.022ZM118.122 39.92V38.34H115.162V30.6H113.282V49.2H115.162V39.92H118.122ZM134.14 37.88V36.34H123.38V31.36H121.5V37.88H134.14ZM134.22 48.78V47.24H123.32V43.28H121.44V48.78H134.22ZM136 41.6V40.06H119.2V41.6H136ZM144.224 32.1V33.68H150.604C150.164 36.8 147.064 39.64 143.284 40.58L144.284 42.14C149.124 40.54 152.404 37.08 152.644 32.1H144.224ZM159.504 47.86C156.704 47.48 153.344 45.3 153.344 42.66V41.62H151.404V42.66C151.404 45.34 148.104 47.54 145.084 47.88L146.064 49.38C148.784 48.88 151.664 46.92 152.344 45.22C153.064 46.8 156.044 48.92 158.504 49.38L159.504 47.86ZM156.584 37.38V42.98H158.464V30.6H156.584V35.8H152.704V37.38H156.584ZM172.463 36.46C172.463 33.8 170.343 32.08 167.583 32.08C164.863 32.08 162.743 33.9 162.743 36.46C162.743 38.98 164.843 40.7 167.583 40.7C170.303 40.7 172.463 39.04 172.463 36.46ZM175.143 30.6V49.2H177.003V30.6H175.143ZM170.603 36.44C170.603 38.06 169.203 39.12 167.583 39.12C165.943 39.12 164.603 38.04 164.603 36.44C164.603 34.84 165.943 33.66 167.583 33.66C169.263 33.66 170.603 34.74 170.603 36.44ZM173.943 43C172.463 43.18 170.263 43.32 167.643 43.42C165.443 43.54 163.263 43.56 161.483 43.56L161.783 45.16C163.263 45.14 165.223 45.1 167.343 45C169.703 44.88 172.443 44.7 174.143 44.48L173.943 43ZM193.127 39.78H188.067V36.52H193.127V39.78ZM195.007 41.3V31.84H193.127V35.02H188.067V31.86H186.207V41.3H195.007ZM200.627 48.6V47.06H190.047V42.82H188.167V48.6H200.627ZM202.767 37.6V36.02H199.967V30.6H198.107V44.06H199.967V37.6H202.767ZM206.465 42.94V34.42H211.845V32.9H204.585V44.52H206.365C208.685 44.52 211.365 44.34 212.985 44L212.745 42.44C211.285 42.76 208.965 42.94 206.805 42.94H206.465ZM219.725 49.2V30.6H217.905V37.74H215.685V31H213.885V48.28H215.685V39.28H217.905V49.2H219.725ZM239.204 46.84V45.3H231.704V42.36H237.624V40.82H226.304V37.92H237.124V32.12H224.384V33.66H235.244V36.38H224.424V42.36H229.824V45.3H222.404V46.84H239.204ZM263.547 37.02V35.46H260.767V30.6H258.887V41.94H260.767V37.02H263.547ZM254.747 43.46C257.447 43.46 259.107 44.24 259.107 45.56C259.107 46.88 257.447 47.66 254.747 47.66C252.067 47.66 250.427 46.88 250.427 45.56C250.427 44.24 252.067 43.46 254.747 43.46ZM261.027 45.56C261.027 43.32 258.687 41.92 254.747 41.92C250.827 41.92 248.487 43.32 248.487 45.56C248.487 47.8 250.827 49.2 254.747 49.2C258.687 49.2 261.027 47.8 261.027 45.56ZM256.967 38.98C254.847 38.26 252.567 36.1 252.567 33.16V31.46H250.647V33.24C250.647 36.16 248.687 38.4 246.027 39.54L247.187 41.02C249.207 40.06 251.087 38.32 251.647 36.36C252.427 38.18 254.187 39.7 255.867 40.46L256.967 38.98ZM281.946 37.02V35.46H279.166V30.6H277.286V41.94H279.166V37.02H281.946ZM273.146 43.46C275.846 43.46 277.506 44.24 277.506 45.56C277.506 46.88 275.846 47.66 273.146 47.66C270.466 47.66 268.826 46.88 268.826 45.56C268.826 44.24 270.466 43.46 273.146 43.46ZM279.426 45.56C279.426 43.32 277.086 41.92 273.146 41.92C269.226 41.92 266.886 43.32 266.886 45.56C266.886 47.8 269.226 49.2 273.146 49.2C277.086 49.2 279.426 47.8 279.426 45.56ZM275.366 38.98C273.246 38.26 270.966 36.1 270.966 33.16V31.46H269.046V33.24C269.046 36.16 267.086 38.4 264.426 39.54L265.586 41.02C267.606 40.06 269.486 38.32 270.046 36.36C270.826 38.18 272.586 39.7 274.266 40.46L275.366 38.98ZM291.104 39.7C291.104 40.82 289.944 41.5 288.584 41.5C287.244 41.5 286.064 40.82 286.064 39.7C286.064 38.52 287.224 37.88 288.584 37.88C289.944 37.88 291.104 38.52 291.104 39.7ZM292.984 39.7C292.984 37.6 291.104 36.36 288.584 36.36C286.064 36.36 284.184 37.6 284.184 39.7C284.184 41.76 286.084 43.02 288.584 43.02C291.104 43.02 292.984 41.74 292.984 39.7ZM294.024 35.5V33.98H283.104V35.5H294.024ZM291.164 32.7V31.18H285.764V32.7H291.164ZM298.204 48.64V47.12H287.684V43.76H285.804V48.64H298.204ZM300.364 38.42V36.84H297.564V30.6H295.704V44.3H297.564V38.42H300.364ZM315.963 30.6H314.103V49.2H315.963V39.42H318.863V37.86H315.963V30.6ZM304.263 43.08V34.1H311.183V32.56H302.403V44.66H304.483C307.863 44.64 311.063 44.42 313.003 44.02L312.783 42.48C310.903 42.9 307.483 43.08 305.043 43.08H304.263ZM320.141 47.3H322.201V45.22H320.141V47.3Z" fill="white"/>
</svg>
