<svg width="555" height="94" viewBox="0 0 555 94" fill="none" xmlns="http://www.w3.org/2000/svg">
<mask id="path-1-inside-1_35_16" fill="white">
<path d="M0 0H555V63H0V0Z"/>
</mask>
<path d="M0 1H555V-1H0V1ZM555 62H0V64H555V62Z" fill="white" mask="url(#path-1-inside-1_35_16)"/>
<path d="M209.305 29.98V28.46H198.265V21.14H196.385V29.98H201.825V34.24H194.405V35.76H211.205V34.24H203.705V29.98H209.305ZM228.524 38.2V19.6H226.704V26.98H224.544V20H222.744V37.28H224.544V28.52H226.704V38.2H228.524ZM221.604 31.62C219.684 32.02 217.104 32.18 215.204 32.18V28.14H220.664V21.5H213.284V23.04H218.784V26.6H213.324V33.72H214.684C217.084 33.72 219.984 33.48 221.844 33.12L221.604 31.62ZM246.342 26.88V25.46H235.202V24.22H245.962V20.24H233.342V21.64H244.082V22.94H233.322V26.88H246.342ZM246.662 37.86V36.42H235.002V35.06H246.062V30.94H233.122V32.36H244.182V33.74H233.122V37.86H246.662ZM248.002 29.64V28.2H231.202V29.64H248.002ZM270.006 26.06V24.54H259.106V21.94H269.826V20.42H257.226V26.06H270.006ZM270.426 38.04V36.5H258.946V34.82H269.766V30.44H257.006V31.96H267.886V33.4H257.066V38.04H270.426ZM272.006 29V27.48H255.206V29H272.006ZM286.805 26C286.805 27.9 284.885 29.18 282.005 29.18C279.125 29.18 277.225 27.9 277.225 26C277.225 24.12 279.125 22.82 282.005 22.82C284.905 22.82 286.805 24.12 286.805 26ZM288.725 26C288.725 23.14 286.065 21.18 282.005 21.18C277.965 21.18 275.305 23.14 275.305 26C275.305 28.88 277.965 30.82 282.005 30.82C286.045 30.82 288.725 28.88 288.725 26ZM290.405 35.68V34.14H273.605V35.68H290.405ZM299.263 32H294.563V23H299.263V32ZM301.143 33.54V21.46H292.683V33.54H301.143ZM302.223 25.42H305.443V29.04H302.223V30.62H305.443V38.2H307.323V19.6H305.443V23.84H302.223V25.42ZM331.007 37.58V36.06H320.407V31.78H318.527V37.58H331.007ZM330.367 19.6H328.507V33.1H330.367V26.68H333.167V25.12H330.367V19.6ZM316.067 22.84H320.227V23.64C320.227 26.24 317.987 28.74 315.567 29.62L316.687 31.1C318.607 30.32 320.607 28.32 321.207 26.54C321.987 28.24 323.887 29.98 325.547 30.64L326.587 29.12C324.487 28.48 322.147 26.24 322.147 23.6V22.84H326.207V21.3H316.067V22.84ZM348.765 19.6H346.905V38.2H348.765V28.42H351.665V26.86H348.765V19.6ZM337.065 32.08V23.1H343.985V21.56H335.205V33.66H337.285C340.665 33.64 343.865 33.42 345.805 33.02L345.585 31.48C343.705 31.9 340.285 32.08 337.845 32.08H337.065ZM352.504 38.68H354.064L355.384 34.38H353.244L352.504 38.68ZM358.139 36.3H360.199V34.22H358.139V36.3Z" fill="white"/>
</svg>
