<svg width="555" height="94" viewBox="0 0 555 94" fill="none" xmlns="http://www.w3.org/2000/svg">
<mask id="path-1-inside-1_31_33" fill="white">
<path d="M0 0H555V63H0V0Z"/>
</mask>
<path d="M0 1H555V-1H0V1ZM555 62H0V64H555V62Z" fill="white" mask="url(#path-1-inside-1_31_33)"/>
<path d="M141.763 26.64V25.1H130.903V21.92H141.623V20.38H129.023V26.64H141.763ZM135.403 33.02C138.183 33.02 139.903 33.7 139.903 34.84C139.903 36 138.183 36.64 135.403 36.64C132.643 36.64 130.923 36 130.923 34.84C130.923 33.7 132.643 33.02 135.403 33.02ZM141.823 34.84C141.823 32.7 139.483 31.48 135.403 31.48C131.323 31.48 128.983 32.76 128.983 34.84C128.983 36.92 131.323 38.18 135.403 38.18C139.483 38.18 141.823 36.94 141.823 34.84ZM143.803 30.02V28.48H127.003V30.02H143.803ZM162.202 35.48V33.94H155.942V27.78H154.062V33.94H151.342V27.78H149.462V33.94H145.402V35.48H162.202ZM147.142 21.64V23.18H158.322C158.342 26.04 158.162 29.28 157.602 31.5L159.422 31.8C160.042 29.26 160.242 26 160.242 21.64H147.142ZM171.64 27.36C171.64 28.28 170.46 28.8 169.12 28.8C167.78 28.8 166.6 28.28 166.6 27.36C166.6 26.42 167.76 25.92 169.12 25.92C170.46 25.92 171.64 26.42 171.64 27.36ZM173.52 27.36C173.52 25.56 171.62 24.5 169.12 24.5C166.6 24.5 164.7 25.56 164.7 27.36C164.7 29.18 166.64 30.22 169.12 30.22C171.66 30.22 173.52 29.18 173.52 27.36ZM174.64 23.86V22.38H163.7V23.86H174.64ZM171.92 21.38V19.88H166.52V21.38H171.92ZM178.82 38.12V36.64H168.16V35.22H178.18V31.1H166.24V32.56H176.3V33.84H166.28V38.12H178.82ZM180.94 26.12V24.56H178.18V19.6H176.3V30.14H178.18V26.12H180.94ZM203.784 33.44V19.62H201.984V24.76H200.124V19.96H198.364V32.88H200.124V26.3H201.984V33.44H203.784ZM204.104 37.64V36.12H193.104V31.72H191.224V37.64H204.104ZM197.424 27.96C196.644 28.2 195.664 28.36 194.984 28.36V22.94H197.124V21.42H193.204V29.96C194.824 29.96 196.404 29.8 197.664 29.44L197.424 27.96ZM192.484 28.04C191.904 28.24 190.804 28.36 190.124 28.36V22.94H192.304V21.42H188.364V29.96C190.364 29.96 191.804 29.78 192.744 29.52L192.484 28.04ZM221.108 38.22V31.96H228.608V30.42H211.808V31.96H219.228V38.22H221.108ZM224.648 26.66H215.748V22.16H224.648V26.66ZM226.528 28.18V20.64H213.868V28.18H226.528ZM247.006 35.84V34.3H239.506V29.94H237.626V34.3H230.206V35.84H247.006ZM245.646 22.94V21.42H231.606V22.94H237.626V23.16C237.626 26.22 233.746 28.76 230.826 29.22L231.766 30.76C234.666 30.04 237.786 27.94 238.606 25.72C239.546 27.9 242.606 30 245.466 30.76L246.406 29.28C243.626 28.76 239.606 26.18 239.606 23.16V22.94H245.646ZM249.605 21.06V22.62H255.885C255.365 25.88 252.565 28.54 248.725 29.48L249.685 31.02C254.545 29.6 257.785 26.12 257.945 21.06H249.605ZM261.985 26.88V33.1H263.865V19.6H261.985V25.32H258.105V26.88H261.985ZM264.285 37.72V36.2H253.605V31.86H251.725V37.72H264.285ZM286.069 19.6V38.2H287.949V19.6H286.069ZM284.069 32.36C281.429 30.94 279.349 28.08 279.349 24.48V23H283.509V21.46H273.189V23H277.409V24.5C277.409 28.12 275.369 31.18 272.529 32.82L273.729 34.2C275.929 32.9 277.849 30.5 278.389 28.32C278.969 30.38 281.169 32.72 282.949 33.76L284.069 32.36ZM299.027 30.5C299.027 31.88 298.027 32.84 296.507 32.84C295.047 32.84 293.987 31.88 293.987 30.5C293.987 29.12 295.067 28.14 296.507 28.14C297.947 28.14 299.027 29.12 299.027 30.5ZM300.887 30.5C300.887 28.28 299.147 26.58 296.507 26.58C293.867 26.58 292.107 28.32 292.107 30.5C292.107 32.74 293.867 34.4 296.507 34.4C299.147 34.4 300.887 32.7 300.887 30.5ZM301.927 25.54V24.02H290.907V25.54H301.927ZM299.227 22.34V20.8H293.667V22.34H299.227ZM308.327 28.92V27.34H305.367V19.6H303.487V38.2H305.367V28.92H308.327ZM325.265 38.06V36.54H314.465V34.88H324.665V30.42H312.565V31.94H322.785V33.46H312.585V38.06H325.265ZM309.885 24.1H313.905C313.685 26.22 311.685 27.98 309.365 28.64L310.405 30.06C312.485 29.34 314.345 27.74 314.925 26.14C315.745 27.72 317.665 29.06 319.285 29.54L320.225 28.08C318.245 27.64 316.165 26.14 315.905 24.1H320.005V22.6H309.885V24.1ZM324.665 29.48V19.6H322.785V24.96H319.585V26.48H322.785V29.48H324.665ZM312.345 21.2H317.505V19.7H312.345V21.2ZM336.224 21.36C338.984 21.36 340.724 22.08 340.724 23.14C340.724 24.2 338.984 24.92 336.224 24.92C333.484 24.92 331.764 24.2 331.764 23.14C331.764 22.08 333.484 21.36 336.224 21.36ZM342.664 23.14C342.664 21.04 340.264 19.86 336.224 19.86C332.224 19.86 329.804 21.04 329.804 23.14C329.804 25.24 332.224 26.42 336.224 26.42C340.264 26.42 342.664 25.24 342.664 23.14ZM343.204 38.06V36.5H331.604V34.92H342.504V30.64H329.684V32.18H340.624V33.5H329.724V38.06H343.204ZM344.604 29.06V27.54H327.804V29.06H344.604ZM360.148 27.58C360.148 30.44 359.168 32.52 357.268 32.52C355.368 32.52 354.388 30.44 354.388 27.58C354.388 24.7 355.368 22.62 357.268 22.62C359.168 22.62 360.148 24.7 360.148 27.58ZM352.468 27.56C352.468 31.26 353.968 34.14 357.268 34.14C360.568 34.14 362.028 31.26 362.028 27.58C362.028 23.88 360.568 21 357.268 21C353.968 21 352.468 23.88 352.468 27.56ZM367.148 38.2V19.6H365.268V38.2H367.148ZM378.606 27.04C379.446 27.04 380.206 26.98 380.886 26.88V28.92H376.246V26.86C376.946 26.98 377.726 27.04 378.606 27.04ZM378.606 32.98C381.366 32.98 383.226 33.6 383.226 34.82C383.226 36.02 381.386 36.64 378.606 36.64C375.846 36.64 374.026 36.02 374.026 34.82C374.026 33.6 375.846 32.98 378.606 32.98ZM383.086 23.56C383.086 24.82 381.326 25.54 378.606 25.54C375.846 25.54 374.126 24.82 374.126 23.56C374.126 22.28 375.846 21.58 378.606 21.58C381.366 21.58 383.086 22.28 383.086 23.56ZM385.206 34.8C385.206 32.68 382.726 31.46 378.606 31.46C374.486 31.46 372.026 32.68 372.026 34.8C372.026 36.94 374.486 38.16 378.606 38.16C382.726 38.16 385.206 36.94 385.206 34.8ZM385.006 23.56C385.006 21.42 382.666 20.08 378.606 20.08C374.546 20.08 372.186 21.42 372.186 23.56C372.186 24.78 372.946 25.74 374.366 26.34V28.92H370.206V30.44H387.006V28.92H382.766V26.38C384.206 25.78 385.006 24.8 385.006 23.56ZM396.505 28.7C396.505 29.82 395.345 30.5 393.985 30.5C392.645 30.5 391.465 29.82 391.465 28.7C391.465 27.52 392.625 26.88 393.985 26.88C395.345 26.88 396.505 27.52 396.505 28.7ZM398.385 28.7C398.385 26.6 396.505 25.36 393.985 25.36C391.465 25.36 389.585 26.6 389.585 28.7C389.585 30.76 391.485 32.02 393.985 32.02C396.505 32.02 398.385 30.74 398.385 28.7ZM399.425 24.5V22.98H388.505V24.5H399.425ZM396.565 21.7V20.18H391.165V21.7H396.565ZM403.605 37.64V36.12H393.085V32.76H391.205V37.64H403.605ZM405.765 27.42V25.84H402.965V19.6H401.105V33.3H402.965V27.42H405.765ZM421.363 19.6H419.503V38.2H421.363V28.42H424.263V26.86H421.363V19.6ZM409.663 32.08V23.1H416.583V21.56H407.803V33.66H409.883C413.263 33.64 416.463 33.42 418.403 33.02L418.183 31.48C416.303 31.9 412.883 32.08 410.443 32.08H409.663ZM425.542 36.3H427.602V34.22H425.542V36.3Z" fill="white"/>
</svg>
