<svg width="563" height="94" viewBox="0 0 563 94" fill="none" xmlns="http://www.w3.org/2000/svg">
<g filter="url(#filter0_d_35_17)">
<mask id="path-1-inside-1_35_17" fill="white">
<path d="M4 0H559V85H4V0Z"/>
</mask>
<path d="M4 1H559V-1H4V1ZM559 84H4V86H559V84Z" fill="white" mask="url(#path-1-inside-1_35_17)"/>
<path d="M169.199 26.12V24.56H166.699V19.6H164.859V30.8H166.699V26.12H169.199ZM158.199 26.42C157.039 25.76 156.259 24.7 156.259 22.58V22.38H157.619V20.84H152.119V22.38H154.519V22.54C154.519 24.92 153.379 27.02 151.439 28.16L152.599 29.4C153.859 28.6 155.079 27.08 155.439 25.82C155.739 26.52 156.519 27.36 157.139 27.72L158.199 26.42ZM164.999 34.56C164.999 35.88 163.359 36.66 160.639 36.66C157.979 36.66 156.339 35.88 156.339 34.56C156.339 33.24 157.979 32.46 160.639 32.46C163.359 32.46 164.999 33.24 164.999 34.56ZM164.319 27.88C162.519 26.94 161.439 25.36 161.439 22.44V22.38H163.679V20.84H158.199V22.38H159.679V22.6C159.679 25.72 158.419 27.7 156.379 29.04L157.579 30.3C158.899 29.5 160.279 27.74 160.619 26.32C161.059 27.44 162.339 28.78 163.319 29.22L164.319 27.88ZM166.939 34.56C166.939 32.32 164.599 30.92 160.639 30.92C156.739 30.92 154.399 32.32 154.399 34.56C154.399 36.8 156.739 38.2 160.639 38.2C164.599 38.2 166.939 36.8 166.939 34.56ZM172.338 20.96V22.5H183.158C183.158 24.54 182.998 27.22 182.538 29.1H170.398V30.62H177.838V38.2H179.718V30.62H187.198V29.1H184.378C184.918 26.48 185.058 23.68 185.058 20.96H172.338ZM211.202 30.32V28.78H202.942V25.12H201.062V28.78H194.402V30.32H211.202ZM196.402 20.76V22.28H207.102C207.102 23.92 207.022 25.62 206.642 27.22L208.462 27.44C208.742 26.28 208.942 24.76 208.982 22.9C209.002 22.24 209.002 21.52 209.002 20.76H196.402ZM209.262 37.64V36.1H198.402V32.12H196.522V37.64H209.262ZM217.94 22.24C219.78 22.24 220.96 23.46 220.96 25.1C220.96 26.78 219.74 27.96 217.94 27.96C216.2 27.96 214.94 26.78 214.94 25.08C214.94 23.46 216.18 22.24 217.94 22.24ZM227.18 38.22V31.48H215.12V33H225.3V38.22H227.18ZM229.94 26.3H227.16V24H229.94V22.44H227.16V19.6H225.28V30.54H227.16V27.88H229.94V26.3ZM217.94 20.64C215.22 20.64 213 22.46 213 25.1C213 27.78 215.24 29.48 217.94 29.48C220.68 29.48 222.88 27.76 222.88 25.1C222.88 22.44 220.66 20.64 217.94 20.64ZM242.204 22.46C244.024 22.46 245.184 23.72 245.184 25.48C245.184 27.2 244.024 28.44 242.204 28.44C240.444 28.44 239.224 27.18 239.224 25.46C239.224 23.74 240.444 22.46 242.204 22.46ZM242.204 20.86C239.344 20.86 237.244 22.82 237.244 25.5C237.244 28.16 239.344 30.02 242.204 30.02C245.064 30.02 247.164 28.16 247.164 25.48C247.164 22.82 245.064 20.86 242.204 20.86ZM252.504 37.62V36.1H241.724V31.82H239.844V37.62H252.504ZM252.064 33.1V19.6H250.184V33.1H252.064ZM255.942 21.1V22.66H262.302C261.782 25.92 258.822 28.78 254.982 29.72L255.942 31.26C260.802 29.84 264.202 26.16 264.362 21.1H255.942ZM270.122 37.7V36.16H259.702V31.88H257.822V37.7H270.122ZM272.362 26.84V25.26H269.562V19.6H267.682V33.3H269.562V26.84H272.362ZM282.021 21.36C284.781 21.36 286.521 22.08 286.521 23.14C286.521 24.2 284.781 24.92 282.021 24.92C279.281 24.92 277.561 24.2 277.561 23.14C277.561 22.08 279.281 21.36 282.021 21.36ZM288.461 23.14C288.461 21.04 286.061 19.86 282.021 19.86C278.021 19.86 275.601 21.04 275.601 23.14C275.601 25.24 278.021 26.42 282.021 26.42C286.061 26.42 288.461 25.24 288.461 23.14ZM289.001 38.06V36.5H277.401V34.92H288.301V30.64H275.481V32.18H286.421V33.5H275.521V38.06H289.001ZM290.401 29.06V27.54H273.601V29.06H290.401ZM310.485 29.18H301.525V25.8H310.485V29.18ZM312.365 30.72V20.9H310.485V24.28H301.525V20.9H299.645V30.72H305.025V34.38H297.605V35.92H314.405V34.38H306.905V30.72H312.365ZM332.803 35.48V33.94H324.283V27.68H322.403V33.94H316.003V35.48H332.803ZM330.623 21.32H317.743V22.86H328.703V25.08C328.703 27.28 328.443 29.88 328.023 31.46L329.843 31.76C330.383 29.52 330.583 27.14 330.623 24.18V21.32ZM347.327 31.8H342.467V23H347.327V31.8ZM349.207 33.34V21.46H340.587V33.34H349.207ZM353.367 27.94V38.2H355.247V19.6H353.367V26.34H350.087V27.94H353.367ZM370.245 31.64C367.985 32.06 364.385 32.22 361.805 32.22H361.245V28H368.205V21.28H359.285V22.8H366.325V26.48H359.365V33.8H361.685C365.465 33.76 368.505 33.52 370.445 33.2L370.245 31.64ZM371.865 19.6V38.2H373.745V19.6H371.865ZM387.124 28.52H385.384V25.68H387.124V28.52ZM388.804 30.02V21.02H387.124V24.2H385.384V21.02H383.704V30.02H388.804ZM380.884 28.52H379.124V25.68H380.884V28.52ZM382.564 30.02V21.02H380.884V24.2H379.124V21.02H377.464V30.02H382.564ZM392.384 33.18V19.6H390.544V33.18H392.384ZM392.804 37.58V36.06H381.744V31.88H379.864V37.58H392.804ZM403.622 21.36C406.382 21.36 408.122 22.08 408.122 23.14C408.122 24.2 406.382 24.92 403.622 24.92C400.882 24.92 399.162 24.2 399.162 23.14C399.162 22.08 400.882 21.36 403.622 21.36ZM410.062 23.14C410.062 21.04 407.662 19.86 403.622 19.86C399.622 19.86 397.202 21.04 397.202 23.14C397.202 25.24 399.622 26.42 403.622 26.42C407.662 26.42 410.062 25.24 410.062 23.14ZM410.602 38.06V36.5H399.002V34.92H409.902V30.64H397.082V32.18H408.022V33.5H397.122V38.06H410.602ZM412.002 29.06V27.54H395.202V29.06H412.002ZM193.799 59.76V58.22H186.579V54.6H184.699V58.22H176.999V59.76H193.799ZM178.939 61.84V63.38H189.699V68.28H191.579V61.84H178.939ZM185.719 50.26V51.78H189.959C189.959 53.38 189.879 55.18 189.419 56.46L191.259 56.76C191.779 55.08 191.879 52.88 191.879 50.26H185.719ZM178.459 50.26V51.78H182.279C182.259 53.38 181.879 55.28 181.379 56.4L183.219 56.74C183.799 55.16 184.199 52.82 184.199 50.26H178.459ZM209.823 57.62V62.1H207.963V57.62H209.823ZM206.603 63.72H211.203V51.58H209.823V56.04H207.963V51.58H206.603V63.72ZM204.303 57.62V62.1H202.483V57.62H204.303ZM201.083 63.72H205.703V51.58H204.303V56.04H202.483V51.58H201.083V63.72ZM212.403 67.44H213.983V61.28H215.803V68.36H217.423V49.5H215.803V54.22H213.983V49.88H212.403V67.44ZM215.803 55.84V59.68H213.983V55.84H215.803ZM236.202 65.48V63.94H227.682V57.68H225.802V63.94H219.402V65.48H236.202ZM234.022 51.32H221.142V52.86H232.102V55.08C232.102 57.28 231.842 59.88 231.422 61.46L233.242 61.76C233.782 59.52 233.982 57.14 234.022 54.18V51.32ZM260.685 58.6V57.02H257.765V49.6H255.905V68.2H257.765V58.6H260.685ZM254.365 62.46C251.725 61 249.705 58.2 249.705 54.6V53.08H253.825V51.54H243.585V53.08H247.765V54.62C247.765 58.14 245.745 61.3 242.885 62.94L244.105 64.32C246.325 62.94 248.185 60.56 248.745 58.44C249.345 60.5 251.465 62.82 253.265 63.86L254.365 62.46ZM276.744 56.88V55.34H265.984V50.36H264.104V56.88H276.744ZM276.824 67.78V66.24H265.924V62.28H264.044V67.78H276.824ZM278.604 60.6V59.06H261.804V60.6H278.604ZM293.248 61.98H288.248V57.28H293.248V61.98ZM295.128 63.52V51.08H293.248V55.78H288.248V51.1H286.388V63.52H295.128ZM299.308 58V68.2H301.188V49.6H299.308V56.4H295.968V58H299.308ZM319.806 66.76C316.646 66.56 313.566 64.44 313.566 62.28V61.9H311.626V62.28C311.626 64.48 308.606 66.54 305.346 66.72L306.306 68.22C309.046 67.8 311.806 66 312.546 64.52C313.326 66.02 316.166 67.9 318.886 68.26L319.806 66.76ZM319.366 57.72V56.24H308.226V54.62H318.946V50.24H306.346V51.7H317.066V53.22H306.346V57.72H319.366ZM321.006 60.78V59.24H304.206V60.78H321.006ZM330.945 57.58C330.945 60.44 329.965 62.52 328.065 62.52C326.165 62.52 325.185 60.44 325.185 57.58C325.185 54.7 326.165 52.62 328.065 52.62C329.965 52.62 330.945 54.7 330.945 57.58ZM323.265 57.56C323.265 61.26 324.765 64.14 328.065 64.14C331.365 64.14 332.825 61.26 332.825 57.58C332.825 53.88 331.365 51 328.065 51C324.765 51 323.265 53.88 323.265 57.56ZM337.945 68.2V49.6H336.065V68.2H337.945ZM351.909 50.62C349.229 50.62 347.089 52.46 347.089 55.12C347.089 57.8 349.249 59.5 351.909 59.5C354.589 59.5 356.749 57.78 356.749 55.12C356.749 52.44 354.569 50.62 351.909 50.62ZM351.909 52.24C353.729 52.24 354.849 53.46 354.849 55.12C354.849 56.76 353.669 57.96 351.909 57.96C350.209 57.96 348.969 56.76 348.969 55.08C348.969 53.46 350.189 52.24 351.909 52.24ZM363.609 66.94C361.809 66.28 360.049 64.22 360.049 61.92V61.04H358.189V61.98C358.189 64.26 356.629 66.26 354.549 67.26L355.769 68.52C357.289 67.8 358.729 66.1 359.129 64.76C359.589 66.06 361.209 67.68 362.449 68.28L363.609 66.94ZM361.869 60.24V49.6H359.989V60.24H361.869ZM355.789 65.36C354.409 64.84 353.169 63.56 353.169 61.72V61.04H351.329V61.82C351.329 64.12 349.569 66.1 347.629 66.98L348.749 68.3C350.309 67.58 351.929 65.8 352.369 64.4C352.769 65.3 353.709 66.22 354.509 66.62L355.789 65.36ZM379.367 49.6H377.507V68.2H379.367V58.42H382.267V56.86H379.367V49.6ZM367.667 62.08V53.1H374.587V51.56H365.807V63.66H367.887C371.267 63.64 374.467 63.42 376.407 63.02L376.187 61.48C374.307 61.9 370.887 62.08 368.447 62.08H367.667ZM383.545 66.3H385.605V64.22H383.545V66.3Z" fill="white"/>
</g>
<defs>
<filter id="filter0_d_35_17" x="0" y="0" width="563" height="93" filterUnits="userSpaceOnUse" color-interpolation-filters="sRGB">
<feFlood flood-opacity="0" result="BackgroundImageFix"/>
<feColorMatrix in="SourceAlpha" type="matrix" values="0 0 0 0 0 0 0 0 0 0 0 0 0 0 0 0 0 0 127 0" result="hardAlpha"/>
<feOffset dy="4"/>
<feGaussianBlur stdDeviation="2"/>
<feComposite in2="hardAlpha" operator="out"/>
<feColorMatrix type="matrix" values="0 0 0 0 0 0 0 0 0 0 0 0 0 0 0 0 0 0 0.25 0"/>
<feBlend mode="normal" in2="BackgroundImageFix" result="effect1_dropShadow_35_17"/>
<feBlend mode="normal" in="SourceGraphic" in2="effect1_dropShadow_35_17" result="shape"/>
</filter>
</defs>
</svg>
