<svg width="555" height="94" viewBox="0 0 555 94" fill="none" xmlns="http://www.w3.org/2000/svg">
<mask id="path-1-inside-1_56_2" fill="white">
<path d="M0 0H555V85H0V0Z"/>
</mask>
<path d="M0 1H555V-1H0V1ZM555 84H0V86H555V84Z" fill="white" mask="url(#path-1-inside-1_56_2)"/>
<path d="M210 21.06V22.62H216.36C215.84 25.88 212.96 28.54 209.12 29.48L210.08 31.02C214.94 29.6 218.26 26.12 218.42 21.06H210ZM224.04 33.1V19.6H222.16V33.1H224.04ZM224.62 37.72V36.2H213.96V31.92H212.08V37.72H224.62ZM244.378 26.06V24.5H241.578V19.6H239.698V31.04H241.578V26.06H244.378ZM239.898 34.58C239.898 35.88 238.238 36.64 235.538 36.64C232.858 36.64 231.218 35.88 231.218 34.58C231.218 33.24 232.858 32.5 235.538 32.5C238.238 32.5 239.898 33.24 239.898 34.58ZM227.258 22.42H231.418V22.98C231.418 25.58 229.178 27.96 226.758 28.84L227.878 30.3C229.798 29.52 231.798 27.62 232.398 25.84C233.178 27.54 234.978 29.12 236.638 29.78L237.678 28.28C235.578 27.64 233.338 25.58 233.338 22.94V22.42H237.398V20.88H227.258V22.42ZM241.818 34.58C241.818 32.32 239.478 30.94 235.538 30.94C231.618 30.94 229.278 32.32 229.278 34.58C229.278 36.8 231.618 38.18 235.538 38.18C239.478 38.18 241.818 36.8 241.818 34.58ZM254.017 21.36C256.777 21.36 258.517 22.08 258.517 23.14C258.517 24.2 256.777 24.92 254.017 24.92C251.277 24.92 249.557 24.2 249.557 23.14C249.557 22.08 251.277 21.36 254.017 21.36ZM260.457 23.14C260.457 21.04 258.057 19.86 254.017 19.86C250.017 19.86 247.597 21.04 247.597 23.14C247.597 25.24 250.017 26.42 254.017 26.42C258.057 26.42 260.457 25.24 260.457 23.14ZM260.997 38.06V36.5H249.397V34.92H260.297V30.64H247.477V32.18H258.417V33.5H247.517V38.06H260.997ZM262.397 29.06V27.54H245.597V29.06H262.397ZM286.881 28.6V27.02H283.961V19.6H282.101V38.2H283.961V28.6H286.881ZM280.561 32.46C277.921 31 275.901 28.2 275.901 24.6V23.08H280.021V21.54H269.781V23.08H273.961V24.62C273.961 28.14 271.941 31.3 269.081 32.94L270.301 34.32C272.521 32.94 274.381 30.56 274.941 28.44C275.541 30.5 277.661 32.82 279.461 33.86L280.561 32.46ZM297.299 38.2V31.68H304.799V30.14H287.999V31.68H295.419V38.2H297.299ZM304.059 26.9C301.259 26.6 297.699 24.84 297.419 22.46H303.279V20.92H289.559V22.46H295.419C295.139 24.82 291.719 26.66 288.779 26.98L289.659 28.46C292.619 28 295.579 26.24 296.399 24.48C297.299 26.18 300.379 27.96 303.199 28.4L304.059 26.9ZM319.123 22.54V21H314.123V22.54H319.123ZM321.263 25.72V24.18H312.063V25.72H321.263ZM319.083 30.22C319.083 31.42 318.123 32.36 316.803 32.36C315.443 32.36 314.503 31.46 314.503 30.22C314.503 29.02 315.443 28.1 316.803 28.1C318.123 28.1 319.083 29 319.083 30.22ZM320.883 30.22C320.883 28 319.223 26.58 316.803 26.58C314.383 26.58 312.683 27.98 312.683 30.22C312.683 32.34 314.383 33.88 316.803 33.88C319.223 33.88 320.883 32.46 320.883 30.22ZM327.723 38.2V19.6H325.903V27.28H323.983V20H322.183V37.28H323.983V28.82H325.903V38.2H327.723ZM341.602 32.36C338.982 30.74 336.902 27.8 336.902 24.32V21.2H334.962V24.4C334.962 27.82 332.982 31.06 330.182 32.82L331.362 34.22C333.462 32.82 335.302 30.46 335.942 28.2C336.642 30.36 338.822 32.68 340.482 33.76L341.602 32.36ZM345.742 38.2V19.6H343.862V26.12H339.702V27.72H343.862V38.2H345.742ZM140.996 51.06V52.62H147.356C146.836 55.88 143.956 58.54 140.116 59.48L141.076 61.02C145.936 59.6 149.256 56.12 149.416 51.06H140.996ZM155.036 63.1V49.6H153.156V63.1H155.036ZM155.616 67.72V66.2H144.956V61.92H143.076V67.72H155.616ZM175.375 56.06V54.5H172.575V49.6H170.695V61.04H172.575V56.06H175.375ZM170.895 64.58C170.895 65.88 169.235 66.64 166.535 66.64C163.855 66.64 162.215 65.88 162.215 64.58C162.215 63.24 163.855 62.5 166.535 62.5C169.235 62.5 170.895 63.24 170.895 64.58ZM158.255 52.42H162.415V52.98C162.415 55.58 160.175 57.96 157.755 58.84L158.875 60.3C160.795 59.52 162.795 57.62 163.395 55.84C164.175 57.54 165.975 59.12 167.635 59.78L168.675 58.28C166.575 57.64 164.335 55.58 164.335 52.94V52.42H168.395V50.88H158.255V52.42ZM172.815 64.58C172.815 62.32 170.475 60.94 166.535 60.94C162.615 60.94 160.275 62.32 160.275 64.58C160.275 66.8 162.615 68.18 166.535 68.18C170.475 68.18 172.815 66.8 172.815 64.58ZM190.038 57.36C190.038 58.28 188.858 58.8 187.518 58.8C186.178 58.8 184.998 58.28 184.998 57.36C184.998 56.42 186.158 55.92 187.518 55.92C188.858 55.92 190.038 56.42 190.038 57.36ZM191.918 57.36C191.918 55.56 190.018 54.5 187.518 54.5C184.998 54.5 183.098 55.56 183.098 57.36C183.098 59.18 185.038 60.22 187.518 60.22C190.058 60.22 191.918 59.18 191.918 57.36ZM193.038 53.86V52.38H182.098V53.86H193.038ZM190.318 51.38V49.88H184.918V51.38H190.318ZM197.218 68.12V66.64H186.558V65.22H196.578V61.1H184.638V62.56H194.698V63.84H184.678V68.12H197.218ZM199.338 56.12V54.56H196.578V49.6H194.698V60.14H196.578V56.12H199.338ZM222.162 68.2V49.6H220.362V57.12H218.502V50H216.742V67.28H218.502V58.66H220.362V68.2H222.162ZM215.962 61.3C215.222 61.52 214.102 61.7 213.342 61.7V53.44H215.622V51.92H211.562V63.3C213.402 63.3 215.122 63.1 216.202 62.8L215.962 61.3ZM210.842 61.42C210.202 61.62 208.982 61.74 208.482 61.7V53.44H210.662V51.92H206.722V63.3C208.422 63.3 210.022 63.2 211.102 62.9L210.842 61.42ZM247.546 58.54V56.98H244.566V49.6H242.686V68.2H244.566V58.54H247.546ZM237.626 62.02H232.686V53H237.626V62.02ZM239.506 63.54V51.46H230.806V63.54H239.506ZM262.965 49.6H261.105V68.2H262.965V58.42H265.865V56.86H262.965V49.6ZM251.265 62.08V53.1H258.185V51.56H249.405V63.66H251.485C254.865 63.64 258.065 63.42 260.005 63.02L259.785 61.48C257.905 61.9 254.485 62.08 252.045 62.08H251.265ZM281.909 68.2V61.68H289.409V60.14H272.609V61.68H280.029V68.2H281.909ZM288.669 56.9C285.869 56.6 282.309 54.84 282.029 52.46H287.889V50.92H274.169V52.46H280.029C279.749 54.82 276.329 56.66 273.389 56.98L274.269 58.46C277.229 58 280.189 56.24 281.009 54.48C281.909 56.18 284.989 57.96 287.809 58.4L288.669 56.9ZM306.287 68.22V61.56H293.827V63.1H304.387V68.22H306.287ZM304.387 55.64V60.6H306.267V49.6H304.387V54.1H301.327V55.64H304.387ZM298.567 57.94H293.507V52.4H298.567V57.94ZM300.427 59.46V50.9H291.647V59.46H300.427ZM317.825 51.36C320.585 51.36 322.325 52.08 322.325 53.14C322.325 54.2 320.585 54.92 317.825 54.92C315.085 54.92 313.365 54.2 313.365 53.14C313.365 52.08 315.085 51.36 317.825 51.36ZM324.265 53.14C324.265 51.04 321.865 49.86 317.825 49.86C313.825 49.86 311.405 51.04 311.405 53.14C311.405 55.24 313.825 56.42 317.825 56.42C321.865 56.42 324.265 55.24 324.265 53.14ZM324.805 68.06V66.5H313.205V64.92H324.105V60.64H311.285V62.18H322.225V63.5H311.325V68.06H324.805ZM326.205 59.06V57.54H309.405V59.06H326.205ZM335.569 62.12V63.64H346.049V68.28H347.929V62.12H335.569ZM347.929 49.6H346.049V61.16H347.929V56.66H350.629V55.1H347.929V49.6ZM344.969 58.3C343.869 58.48 342.029 58.64 340.209 58.72V55.32H338.409V58.78C336.769 58.84 334.809 58.86 333.049 58.86C333.149 59.4 333.249 59.92 333.329 60.46C334.749 60.46 337.029 60.38 339.049 60.3C340.889 60.22 343.609 60.02 345.189 59.78L344.969 58.3ZM339.449 50.92V52.42H342.149C342.149 53.88 342.009 55.48 341.569 56.92L343.369 57.2C343.809 55.74 344.029 53.34 344.029 50.92H339.449ZM333.849 50.92V52.42H336.289C336.289 53.88 335.989 55.5 335.549 56.96L337.329 57.22C337.789 55.76 338.149 53.34 338.149 50.92H333.849ZM364.453 67.56V61.1C366.373 61 368.433 60.86 369.793 60.68L369.633 59.18C368.073 59.36 365.893 59.48 363.393 59.58C361.333 59.66 359.253 59.7 357.073 59.7L357.353 61.32C358.993 61.3 360.713 61.26 362.573 61.18V67.56H364.453ZM372.713 68.2V49.6H370.833V68.2H372.713ZM368.653 52.46V50.94H358.533V52.46H362.713V52.62C362.713 55.1 359.953 56.54 357.973 56.96L358.973 58.44C360.953 57.9 363.113 56.4 363.673 55.08C364.373 56.34 366.793 57.64 368.493 57.98L369.313 56.44C367.533 56.14 364.593 55.02 364.593 52.6V52.46H368.653ZM384.992 65.36C383.632 64.84 382.392 63.56 382.392 61.72V60.94H380.532V61.82C380.532 64.12 378.772 66.1 376.832 66.98L377.952 68.3C379.512 67.58 381.132 65.8 381.572 64.4C381.972 65.3 382.912 66.22 383.732 66.62L384.992 65.36ZM391.672 68.28L392.832 66.94C391.032 66.28 389.252 64.22 389.252 61.92V60.94H387.392V61.98C387.392 64.26 385.832 66.26 383.772 67.26L384.972 68.52C386.492 67.8 387.932 66.1 388.352 64.76C388.792 66.06 390.432 67.68 391.652 68.28H391.672ZM380.712 52.22C382.472 52.22 383.572 53.42 383.572 55.04C383.572 56.66 382.412 57.84 380.712 57.84C379.032 57.84 377.832 56.68 377.832 55.02C377.832 53.42 379.032 52.22 380.712 52.22ZM380.712 50.62C378.112 50.62 375.992 52.44 375.992 55.04C375.992 57.68 378.132 59.34 380.712 59.34C383.312 59.34 385.432 57.66 385.432 55.04C385.432 52.42 383.292 50.62 380.712 50.62ZM389.192 55.7V59.96H391.072V49.6H389.192V54.16H386.212V55.7H389.192ZM408.57 49.6H406.71V68.2H408.57V58.42H411.47V56.86H408.57V49.6ZM396.87 62.08V53.1H403.79V51.56H395.01V63.66H397.09C400.47 63.64 403.67 63.42 405.61 63.02L405.39 61.48C403.51 61.9 400.09 62.08 397.65 62.08H396.87ZM412.749 66.3H414.809V64.22H412.749V66.3Z" fill="white"/>
</svg>
