<svg width="555" height="94" viewBox="0 0 555 94" fill="none" xmlns="http://www.w3.org/2000/svg">
<mask id="path-1-inside-1_31_34" fill="white">
<path d="M0 0H555V63H0V0Z"/>
</mask>
<path d="M0 1H555V-1H0V1ZM555 62H0V64H555V62Z" fill="white" mask="url(#path-1-inside-1_31_34)"/>
<path d="M208.687 25.52V24H198.107V19.88H196.227V25.52H201.347V27.46H193.927V29H210.727V27.46H203.227V25.52H208.687ZM209.227 38.06V36.5H197.767V34.94H208.527V30.46H195.827V32H206.647V33.54H195.887V38.06H209.227ZM233.911 33.44V19.62H232.111V24.76H230.251V19.96H228.491V32.88H230.251V26.3H232.111V33.44H233.911ZM234.231 37.64V36.12H223.231V31.72H221.351V37.64H234.231ZM227.551 27.96C226.771 28.2 225.791 28.36 225.111 28.36V22.94H227.251V21.42H223.331V29.96C224.951 29.96 226.531 29.8 227.791 29.44L227.551 27.96ZM222.611 28.04C222.031 28.24 220.931 28.36 220.251 28.36V22.94H222.431V21.42H218.491V29.96C220.491 29.96 221.931 29.78 222.871 29.52L222.611 28.04ZM254.075 37.28V20.02H252.275V24.66H249.895V26.2H252.275V29.32H249.475V30.86H252.275V37.28H254.075ZM242.435 21.84V23.38H247.875C247.555 27.18 245.455 30.74 241.615 32.98L242.895 34.36C247.475 31.32 249.695 27.34 249.755 21.84H242.435ZM257.655 38.2V19.6H255.835V38.2H257.655ZM268.973 21.44V19.96H263.813V21.44H268.973ZM268.973 26.82C268.973 27.48 267.893 27.92 266.393 27.92C264.893 27.92 263.833 27.5 263.833 26.82C263.833 26.12 264.893 25.7 266.393 25.7C267.893 25.7 268.973 26.12 268.973 26.82ZM271.873 23.84V22.38H260.873V23.84H271.873ZM275.633 31.92V19.6H273.773V31.92H275.633ZM263.113 32.88V34.4H273.753V38.28H275.633V32.88H263.113ZM270.893 26.82C270.893 25.22 268.893 24.3 266.393 24.3C263.913 24.3 261.933 25.24 261.933 26.82C261.933 28.18 263.373 29.02 265.393 29.24V30.42C263.573 30.5 261.793 30.52 260.293 30.52L260.573 32.12C261.893 32.12 264.593 32.02 266.653 31.9C268.913 31.78 271.093 31.58 272.653 31.38L272.493 29.92C271.213 30.1 269.233 30.24 267.273 30.34V29.24C269.353 29.06 270.893 28.2 270.893 26.82ZM294.452 38.2V19.6H292.652V38.2H294.452ZM285.432 27.58C285.432 30.48 284.672 32.5 283.172 32.5C281.692 32.5 280.932 30.48 280.932 27.58C280.932 24.68 281.692 22.66 283.172 22.66C284.672 22.66 285.432 24.68 285.432 27.58ZM283.172 21.06C280.392 21.06 279.072 23.86 279.072 27.56C279.072 31.28 280.392 34.1 283.172 34.1C285.732 34.1 287.072 31.7 287.252 28.4H289.052V37.32H290.852V19.96H289.052V26.86H287.252C287.092 23.52 285.772 21.06 283.172 21.06ZM318.396 36.8C315.556 36.62 312.696 34.64 312.336 32.78H317.416V31.26H305.216V32.78H310.356C310.016 34.7 307.216 36.62 304.216 36.78L305.176 38.28C308.016 37.92 310.656 36.1 311.316 34.64C311.996 36.08 314.876 37.94 317.456 38.3L318.396 36.8ZM319.876 25.84V24.28H317.096V19.6H315.216V30.46H317.096V25.84H319.876ZM310.416 27.6H305.256V22.4H310.416V27.6ZM312.276 29.1V20.9H303.396V29.1H312.276ZM324.474 21.58H329.634V20.02H324.474V21.58ZM327.994 37.64V31.28C329.974 31.18 332.114 31.02 333.514 30.84L333.314 29.38C331.774 29.56 329.614 29.7 327.134 29.8C325.074 29.88 322.994 29.9 320.834 29.9L321.114 31.5C322.674 31.48 324.334 31.44 326.114 31.38V37.64H327.994ZM322.274 24.22H326.054C325.694 26.02 323.634 27.16 321.554 27.44L322.434 28.92C324.534 28.52 326.414 27.28 327.074 25.86C327.714 27.08 329.694 28.24 331.574 28.56L332.374 27.04C330.494 26.88 328.414 25.84 328.034 24.22H331.854V22.66H322.274V24.22ZM336.534 38.2V19.6H334.654V32.36H330.574V33.82H334.654V38.2H336.534ZM350.732 32.36C348.112 30.74 346.032 27.8 346.032 24.32V21.2H344.092V24.4C344.092 27.82 342.112 31.06 339.312 32.82L340.492 34.22C342.592 32.82 344.432 30.46 345.072 28.2C345.772 30.36 347.952 32.68 349.612 33.76L350.732 32.36ZM354.872 38.2V19.6H352.992V26.12H348.832V27.72H352.992V38.2H354.872ZM358.991 36.18H361.051V34.1H358.991V36.18ZM359.191 32.42H360.791L361.031 20.82H358.971L359.191 32.42Z" fill="white"/>
</svg>
