<svg width="555" height="85" viewBox="0 0 555 85" fill="none" xmlns="http://www.w3.org/2000/svg">
<path fill-rule="evenodd" clip-rule="evenodd" d="M555 1H0V0H555V1ZM555 84H0V85H555V84Z" fill="white"/>
<path d="M82.9565 27.5C82.9565 30.36 81.9565 32.44 80.0765 32.44C78.1765 32.44 77.2165 30.36 77.2165 27.5C77.2165 24.62 78.1765 22.54 80.0765 22.54C81.9565 22.54 82.9565 24.62 82.9565 27.5ZM75.2965 27.48C75.2965 31.18 76.7765 34.06 80.0765 34.06C83.1365 34.06 84.5965 31.56 84.7965 28.24H88.5765V38.2H90.4565V19.6H88.5765V26.64H84.7965C84.5765 23.36 83.0965 20.92 80.0765 20.92C76.7765 20.92 75.2965 23.8 75.2965 27.48Z" fill="white"/>
<path d="M109.095 33.14V19.6H107.275V24.6H104.135V26.12H107.275V33.14H109.095ZM105.615 28.2C104.575 28.44 102.915 28.58 101.635 28.58V22.66H104.895V21.14H99.7949V30.12C102.175 30.12 104.455 29.94 105.855 29.64L105.615 28.2ZM109.495 37.62V36.1H98.7149V31.9H96.8349V37.62H109.495ZM99.0749 28.18C98.1749 28.4 96.8749 28.52 95.8749 28.54V22.66H98.6749V21.14H94.0549V30.08C96.4149 30.08 98.1549 29.86 99.2949 29.6L99.0749 28.18Z" fill="white"/>
<path d="M122.879 21.82C124.659 21.82 125.779 22.92 125.779 24.44C125.779 25.9 124.639 27 122.879 27C121.219 27 119.979 25.96 119.979 24.44C119.979 22.92 121.259 21.82 122.879 21.82ZM122.879 20.22C120.199 20.22 118.119 21.98 118.119 24.46C118.119 27 120.259 28.58 122.879 28.58C125.539 28.58 127.639 26.94 127.639 24.44C127.639 21.94 125.539 20.22 122.879 20.22ZM133.519 38.06V36.52H122.659V34.68H132.859V30.02H120.719V31.56H130.979V33.28H120.779V38.06H133.519ZM132.859 29.06V19.6H130.979V29.06H132.859Z" fill="white"/>
<path d="M144.417 21.36C147.177 21.36 148.917 22.08 148.917 23.14C148.917 24.2 147.177 24.92 144.417 24.92C141.677 24.92 139.957 24.2 139.957 23.14C139.957 22.08 141.677 21.36 144.417 21.36ZM150.857 23.14C150.857 21.04 148.457 19.86 144.417 19.86C140.417 19.86 137.997 21.04 137.997 23.14C137.997 25.24 140.417 26.42 144.417 26.42C148.457 26.42 150.857 25.24 150.857 23.14ZM151.397 38.06V36.5H139.797V34.92H150.697V30.64H137.877V32.18H148.817V33.5H137.917V38.06H151.397ZM152.797 29.06V27.54H135.997V29.06H152.797Z" fill="white"/>
<path d="M177.141 26.02V24.46H174.361V19.6H172.481V30.94H174.361V26.02H177.141ZM168.341 32.46C171.041 32.46 172.701 33.24 172.701 34.56C172.701 35.88 171.041 36.66 168.341 36.66C165.661 36.66 164.021 35.88 164.021 34.56C164.021 33.24 165.661 32.46 168.341 32.46ZM174.621 34.56C174.621 32.32 172.281 30.92 168.341 30.92C164.421 30.92 162.081 32.32 162.081 34.56C162.081 36.8 164.421 38.2 168.341 38.2C172.281 38.2 174.621 36.8 174.621 34.56ZM170.561 27.98C168.441 27.26 166.161 25.1 166.161 22.16V20.46H164.241V22.24C164.241 25.16 162.281 27.4 159.621 28.54L160.781 30.02C162.801 29.06 164.681 27.32 165.241 25.36C166.021 27.18 167.781 28.7 169.461 29.46L170.561 27.98Z" fill="white"/>
<path d="M195.54 26.02V24.46H192.76V19.6H190.88V30.94H192.76V26.02H195.54ZM186.74 32.46C189.44 32.46 191.1 33.24 191.1 34.56C191.1 35.88 189.44 36.66 186.74 36.66C184.06 36.66 182.42 35.88 182.42 34.56C182.42 33.24 184.06 32.46 186.74 32.46ZM193.02 34.56C193.02 32.32 190.68 30.92 186.74 30.92C182.82 30.92 180.48 32.32 180.48 34.56C180.48 36.8 182.82 38.2 186.74 38.2C190.68 38.2 193.02 36.8 193.02 34.56ZM188.96 27.98C186.84 27.26 184.56 25.1 184.56 22.16V20.46H182.64V22.24C182.64 25.16 180.68 27.4 178.02 28.54L179.18 30.02C181.2 29.06 183.08 27.32 183.64 25.36C184.42 27.18 186.18 28.7 187.86 29.46L188.96 27.98Z" fill="white"/>
<path d="M204.818 30.5C204.818 31.88 203.818 32.84 202.298 32.84C200.838 32.84 199.778 31.88 199.778 30.5C199.778 29.12 200.858 28.14 202.298 28.14C203.738 28.14 204.818 29.12 204.818 30.5ZM206.678 30.5C206.678 28.28 204.938 26.58 202.298 26.58C199.658 26.58 197.898 28.32 197.898 30.5C197.898 32.74 199.658 34.4 202.298 34.4C204.938 34.4 206.678 32.7 206.678 30.5ZM207.718 25.54V24.02H196.698V25.54H207.718ZM205.018 22.34V20.8H199.458V22.34H205.018ZM214.118 28.92V27.34H211.158V19.6H209.278V38.2H211.158V28.92H214.118Z" fill="white"/>
<path d="M222.797 28.5H217.917V22.74H222.797V28.5ZM230.857 37.62V36.08H220.277V31.9H218.397V37.62H230.857ZM228.577 24.22V26.8H225.557V28.32H228.577V33.1H230.457V19.6H228.577V22.7H225.557V24.22H228.577ZM224.657 30V21.24H216.057V30H224.657Z" fill="white"/>
<path d="M254.46 29.16V19.6H252.58V23.72H249.18V25.26H252.58V29.16H254.46ZM239.62 22.12H243.82V22.38C243.82 24.98 241.42 27.28 239 28.16L240.06 29.64C241.98 28.86 244.2 26.96 244.8 25.18C245.58 26.88 247.54 28.4 249.2 29.06L250.24 27.56C248.14 26.92 245.74 24.98 245.74 22.34V22.12H249.8V20.6H239.62V22.12ZM255.12 38.06V36.52H244.3V34.72H254.46V30.08H242.36V31.62H252.58V33.3H242.42V38.06H255.12Z" fill="white"/>
<path d="M260.059 31.94V23.42H265.439V21.9H258.179V33.52H259.959C262.279 33.52 264.959 33.34 266.579 33L266.339 31.44C264.879 31.76 262.559 31.94 260.399 31.94H260.059ZM273.319 38.2V19.6H271.499V26.74H269.279V20H267.479V37.28H269.279V28.28H271.499V38.2H273.319Z" fill="white"/>
<path d="M289.943 27.58C289.943 30.44 288.963 32.52 287.063 32.52C285.163 32.52 284.183 30.44 284.183 27.58C284.183 24.7 285.163 22.62 287.063 22.62C288.963 22.62 289.943 24.7 289.943 27.58ZM282.263 27.56C282.263 31.26 283.763 34.14 287.063 34.14C290.363 34.14 291.823 31.26 291.823 27.58C291.823 23.88 290.363 21 287.063 21C283.763 21 282.263 23.88 282.263 27.56ZM296.943 38.2V19.6H295.063V38.2H296.943Z" fill="white"/>
<path d="M309.301 38.1V32.2H316.801V30.68H300.001V32.2H307.421V38.1H309.301ZM315.261 28.82V27.32H303.941V25.2H314.741V20.36H302.021V21.84H312.861V23.74H302.061V28.82H315.261Z" fill="white"/>
<path d="M326.16 27.5C326.16 30.36 325.16 32.44 323.28 32.44C321.38 32.44 320.42 30.36 320.42 27.5C320.42 24.62 321.38 22.54 323.28 22.54C325.16 22.54 326.16 24.62 326.16 27.5ZM318.5 27.48C318.5 31.18 319.98 34.06 323.28 34.06C326.34 34.06 327.8 31.56 328 28.24H331.78V38.2H333.66V19.6H331.78V26.64H328C327.78 23.36 326.3 20.92 323.28 20.92C319.98 20.92 318.5 23.8 318.5 27.48Z" fill="white"/>
<path d="M355.864 19.6V38.2H357.744V19.6H355.864ZM353.864 32.36C351.224 30.94 349.144 28.08 349.144 24.48V23H353.304V21.46H342.984V23H347.204V24.5C347.204 28.12 345.164 31.18 342.324 32.82L343.524 34.2C345.724 32.9 347.644 30.5 348.184 28.32C348.764 30.38 350.964 32.72 352.744 33.76L353.864 32.36Z" fill="white"/>
<path d="M374.262 19.6V38.2H376.142V19.6H374.262ZM372.262 32.36C369.622 30.94 367.542 28.08 367.542 24.48V23H371.702V21.46H361.382V23H365.602V24.5C365.602 28.12 363.562 31.18 360.722 32.82L361.922 34.2C364.122 32.9 366.042 30.5 366.582 28.32C367.162 30.38 369.362 32.72 371.142 33.76L372.262 32.36Z" fill="white"/>
<path d="M394.566 24.96C394.566 22.34 392.466 20.48 389.786 20.48C387.126 20.48 385.026 22.4 385.026 25C385.026 27.64 387.126 29.36 389.806 29.36C392.466 29.36 394.566 27.58 394.566 24.96ZM399.766 36.04C399.766 34.48 398.146 33.68 396.286 33.68C394.406 33.68 392.806 34.48 392.806 36.04C392.806 37.58 394.406 38.4 396.286 38.4C398.146 38.4 399.766 37.58 399.766 36.04ZM392.666 24.96C392.666 26.58 391.546 27.72 389.806 27.72C388.086 27.72 386.926 26.58 386.926 24.96C386.926 23.36 388.086 22.14 389.786 22.14C391.566 22.14 392.666 23.38 392.666 24.96ZM401.946 25.2V23.64H399.166V19.6H397.286V28.4H399.166V25.2H401.946ZM392.006 35.64C390.906 36 389.406 36.34 388.246 36.38V31.1H386.426V37.96C388.806 37.96 390.966 37.56 392.286 37.14L392.006 35.64ZM400.906 33.08V31.64H391.706V33.08H400.906ZM398.546 30.74V29.28H394.166V30.74H398.546ZM398.006 36.04C398.006 36.7 397.206 37.02 396.286 37.02C395.386 37.02 394.566 36.7 394.566 36.04C394.566 35.4 395.386 35.06 396.286 35.06C397.206 35.06 398.006 35.4 398.006 36.04Z" fill="white"/>
<path d="M411.064 27.5C411.064 30.36 410.084 32.44 408.204 32.44C406.344 32.44 405.384 30.36 405.384 27.5C405.384 24.62 406.344 22.54 408.204 22.54C410.084 22.54 411.064 24.62 411.064 27.5ZM403.484 27.48C403.484 31.18 404.944 34.06 408.204 34.06C411.484 34.06 412.924 31.18 412.924 27.5C412.924 23.8 411.484 20.92 408.204 20.92C404.944 20.92 403.484 23.8 403.484 27.48ZM420.544 28.54V26.98H417.564V19.6H415.684V38.2H417.564V28.54H420.544Z" fill="white"/>
<path d="M432.803 32.36C430.183 30.74 428.103 27.8 428.103 24.32V21.2H426.163V24.4C426.163 27.82 424.183 31.06 421.383 32.82L422.563 34.22C424.663 32.82 426.503 30.46 427.143 28.2C427.843 30.36 430.023 32.68 431.683 33.76L432.803 32.36ZM436.943 38.2V19.6H435.063V26.12H430.903V27.72H435.063V38.2H436.943Z" fill="white"/>
<path d="M451.787 31.78H448.067V23.1H451.787V31.78ZM461.327 38.2V19.6H459.507V26.94H457.467V20H455.667V37.28H457.467V28.48H459.507V38.2H461.327ZM453.587 33.28V21.6H446.267V33.28H453.587Z" fill="white"/>
<path d="M479.705 37.62V36.1H469.085V31.9H467.205V37.62H479.705ZM477.385 26.34V33.14H479.265V19.6H477.385V24.78H474.485V26.34H477.385ZM471.545 28.76H466.645V25.7H471.545V28.76ZM473.425 30.3V20.8H471.545V24.18H466.645V20.82H464.765V30.3H473.425Z" fill="white"/>
<path d="M166.244 53.94C166.244 55.04 165.104 55.86 163.324 55.86C161.564 55.86 160.404 55.04 160.404 53.94C160.404 52.82 161.564 51.98 163.324 51.98C165.104 51.98 166.244 52.84 166.244 53.94ZM164.424 63.08V59.68C166.284 59.58 168.224 59.42 169.464 59.24L169.324 57.82C167.584 58.02 165.744 58.14 163.364 58.26C161.324 58.34 159.324 58.36 157.184 58.36L157.484 59.92C159.104 59.88 160.724 59.86 162.544 59.78V63.08H164.424ZM173.164 67.72V66.2H161.544V62.3H159.664V67.72H173.164ZM172.804 63.9V49.6H170.944V60.52H167.284V61.92H170.944V63.9H172.804ZM168.264 53.94C168.264 51.82 166.204 50.46 163.324 50.46C160.484 50.46 158.384 51.82 158.384 53.92C158.384 56.06 160.484 57.36 163.324 57.36C166.204 57.36 168.264 56.04 168.264 53.94Z" fill="white"/>
<path d="M183.822 60.5C183.822 61.88 182.822 62.84 181.302 62.84C179.842 62.84 178.782 61.88 178.782 60.5C178.782 59.12 179.862 58.14 181.302 58.14C182.742 58.14 183.822 59.12 183.822 60.5ZM185.682 60.5C185.682 58.28 183.942 56.58 181.302 56.58C178.662 56.58 176.902 58.32 176.902 60.5C176.902 62.74 178.662 64.4 181.302 64.4C183.942 64.4 185.682 62.7 185.682 60.5ZM186.722 55.54V54.02H175.702V55.54H186.722ZM184.022 52.34V50.8H178.462V52.34H184.022ZM193.122 58.92V57.34H190.162V49.6H188.282V68.2H190.162V58.92H193.122Z" fill="white"/>
<path d="M209.14 56.88V55.34H198.38V50.36H196.5V56.88H209.14ZM209.22 67.78V66.24H198.32V62.28H196.44V67.78H209.22ZM211 60.6V59.06H194.2V60.6H211Z" fill="white"/>
<path d="M219.224 51.1V52.68H225.604C225.164 55.8 222.064 58.64 218.284 59.58L219.284 61.14C224.124 59.54 227.404 56.08 227.644 51.1H219.224ZM234.504 66.86C231.704 66.48 228.344 64.3 228.344 61.66V60.62H226.404V61.66C226.404 64.34 223.104 66.54 220.084 66.88L221.064 68.38C223.784 67.88 226.664 65.92 227.344 64.22C228.064 65.8 231.044 67.92 233.504 68.38L234.504 66.86ZM231.584 56.38V61.98H233.464V49.6H231.584V54.8H227.704V56.38H231.584Z" fill="white"/>
<path d="M247.463 55.46C247.463 52.8 245.343 51.08 242.583 51.08C239.863 51.08 237.743 52.9 237.743 55.46C237.743 57.98 239.843 59.7 242.583 59.7C245.303 59.7 247.463 58.04 247.463 55.46ZM250.143 49.6V68.2H252.003V49.6H250.143ZM245.603 55.44C245.603 57.06 244.203 58.12 242.583 58.12C240.943 58.12 239.603 57.04 239.603 55.44C239.603 53.84 240.943 52.66 242.583 52.66C244.263 52.66 245.603 53.74 245.603 55.44ZM248.943 62C247.463 62.18 245.263 62.32 242.643 62.42C240.443 62.54 238.263 62.56 236.483 62.56L236.783 64.16C238.263 64.14 240.223 64.1 242.343 64C244.703 63.88 247.443 63.7 249.143 63.48L248.943 62Z" fill="white"/>
<path d="M268.127 58.78H263.067V55.52H268.127V58.78ZM270.007 60.3V50.84H268.127V54.02H263.067V50.86H261.207V60.3H270.007ZM275.627 67.6V66.06H265.047V61.82H263.167V67.6H275.627ZM277.767 56.6V55.02H274.967V49.6H273.107V63.06H274.967V56.6H277.767Z" fill="white"/>
<path d="M281.465 61.94V53.42H286.845V51.9H279.585V63.52H281.365C283.685 63.52 286.365 63.34 287.985 63L287.745 61.44C286.285 61.76 283.965 61.94 281.805 61.94H281.465ZM294.725 68.2V49.6H292.905V56.74H290.685V50H288.885V67.28H290.685V58.28H292.905V68.2H294.725Z" fill="white"/>
<path d="M314.204 65.84V64.3H306.704V61.36H312.624V59.82H301.304V56.92H312.124V51.12H299.384V52.66H310.244V55.38H299.424V61.36H304.824V64.3H297.404V65.84H314.204Z" fill="white"/>
<path d="M338.547 56.02V54.46H335.767V49.6H333.887V60.94H335.767V56.02H338.547ZM329.747 62.46C332.447 62.46 334.107 63.24 334.107 64.56C334.107 65.88 332.447 66.66 329.747 66.66C327.067 66.66 325.427 65.88 325.427 64.56C325.427 63.24 327.067 62.46 329.747 62.46ZM336.027 64.56C336.027 62.32 333.687 60.92 329.747 60.92C325.827 60.92 323.487 62.32 323.487 64.56C323.487 66.8 325.827 68.2 329.747 68.2C333.687 68.2 336.027 66.8 336.027 64.56ZM331.967 57.98C329.847 57.26 327.567 55.1 327.567 52.16V50.46H325.647V52.24C325.647 55.16 323.687 57.4 321.027 58.54L322.187 60.02C324.207 59.06 326.087 57.32 326.647 55.36C327.427 57.18 329.187 58.7 330.867 59.46L331.967 57.98Z" fill="white"/>
<path d="M356.946 56.02V54.46H354.166V49.6H352.286V60.94H354.166V56.02H356.946ZM348.146 62.46C350.846 62.46 352.506 63.24 352.506 64.56C352.506 65.88 350.846 66.66 348.146 66.66C345.466 66.66 343.826 65.88 343.826 64.56C343.826 63.24 345.466 62.46 348.146 62.46ZM354.426 64.56C354.426 62.32 352.086 60.92 348.146 60.92C344.226 60.92 341.886 62.32 341.886 64.56C341.886 66.8 344.226 68.2 348.146 68.2C352.086 68.2 354.426 66.8 354.426 64.56ZM350.366 57.98C348.246 57.26 345.966 55.1 345.966 52.16V50.46H344.046V52.24C344.046 55.16 342.086 57.4 339.426 58.54L340.586 60.02C342.606 59.06 344.486 57.32 345.046 55.36C345.826 57.18 347.586 58.7 349.266 59.46L350.366 57.98Z" fill="white"/>
<path d="M366.104 58.7C366.104 59.82 364.944 60.5 363.584 60.5C362.244 60.5 361.064 59.82 361.064 58.7C361.064 57.52 362.224 56.88 363.584 56.88C364.944 56.88 366.104 57.52 366.104 58.7ZM367.984 58.7C367.984 56.6 366.104 55.36 363.584 55.36C361.064 55.36 359.184 56.6 359.184 58.7C359.184 60.76 361.084 62.02 363.584 62.02C366.104 62.02 367.984 60.74 367.984 58.7ZM369.024 54.5V52.98H358.104V54.5H369.024ZM366.164 51.7V50.18H360.764V51.7H366.164ZM373.204 67.64V66.12H362.684V62.76H360.804V67.64H373.204ZM375.364 57.42V55.84H372.564V49.6H370.704V63.3H372.564V57.42H375.364Z" fill="white"/>
<path d="M390.963 49.6H389.103V68.2H390.963V58.42H393.863V56.86H390.963V49.6ZM379.263 62.08V53.1H386.183V51.56H377.403V63.66H379.483C382.863 63.64 386.063 63.42 388.003 63.02L387.783 61.48C385.903 61.9 382.483 62.08 380.043 62.08H379.263Z" fill="white"/>
<path d="M395.141 66.3H397.201V64.22H395.141V66.3Z" fill="white"/>
</svg>
