<svg width="617" height="85" viewBox="0 0 617 85" fill="none" xmlns="http://www.w3.org/2000/svg">
<path d="M2.09901 44.6337H4.73927C4.73927 42.4884 6.48845 40.7393 8.63366 40.7393C10.7789 40.7393 12.5281 42.4884 12.5281 44.6337H15.1683C15.1683 41.0363 12.231 38.099 8.63366 38.099C5.0363 38.099 2.09901 41.0363 2.09901 44.6337ZM2.09901 44.8317V47.4719C4.24422 47.4719 5.9934 49.2211 5.9934 51.3663C5.9934 53.5116 4.24422 55.2607 2.09901 55.2607V57.901C5.69637 57.901 8.63366 54.9637 8.63366 51.3663C8.63366 47.769 5.69637 44.8317 2.09901 44.8317ZM28.6224 38.099H31.2627V31.5644H28.6224V38.099ZM41.6918 57.901V55.2607C35.9822 55.2607 31.2627 50.5413 31.2627 44.8317H28.6224C28.6224 52.1914 34.332 57.901 41.6918 57.901ZM54.973 44.8317H52.3327V57.901H54.973V44.8317ZM55.171 57.901H57.8113C57.8113 51.8944 59.2964 47.505 61.7057 47.505C64.1149 47.505 65.6001 51.8944 65.6001 57.901H68.2403C68.2403 50.5083 65.5011 44.8317 61.7057 44.8317C57.9103 44.8317 55.171 50.5083 55.171 57.901ZM81.4964 31.5644H78.8562V44.6337H81.4964V31.5644ZM81.4964 44.8317H78.8562V57.901H81.4964V44.8317ZM94.7638 57.901V55.2607C88.7572 55.2607 84.3677 53.7756 84.3677 51.3663C84.3677 48.9571 88.7572 47.4719 94.7638 47.4719V44.8317C87.371 44.8317 81.6945 47.571 81.6945 51.3663C81.6945 55.1617 87.371 57.901 94.7638 57.901ZM141.29 57.934C144.92 57.934 147.858 54.9967 147.858 51.3663C147.858 47.736 144.92 44.7987 141.29 44.7987C137.66 44.7987 134.722 47.736 134.722 51.3663C134.722 54.9967 137.66 57.934 141.29 57.934ZM148.023 57.901H150.663V44.8317H148.023V57.901ZM141.29 55.2937C139.112 55.2937 137.363 53.5446 137.363 51.3663C137.363 49.1881 139.112 47.4389 141.29 47.4389C143.468 47.4389 145.217 49.1881 145.217 51.3663C145.217 53.5446 143.468 55.2937 141.29 55.2937ZM174.348 44.8317H171.708V57.901H174.348V44.8317ZM174.546 57.901H177.186C177.186 51.8944 178.671 47.505 181.081 47.505C183.49 47.505 184.975 51.8944 184.975 57.901H187.615C187.615 50.5083 184.876 44.8317 181.081 44.8317C177.285 44.8317 174.546 50.5083 174.546 57.901ZM214.351 44.6337H216.991V31.5644H214.351V44.6337ZM207.618 57.934C211.248 57.934 214.186 54.9967 214.186 51.3663C214.186 47.736 211.248 44.7987 207.618 44.7987C203.988 44.7987 201.05 47.736 201.05 51.3663C201.05 54.9967 203.988 57.934 207.618 57.934ZM214.351 57.901H216.991V44.8317H214.351V57.901ZM207.618 55.2937C205.44 55.2937 203.691 53.5446 203.691 51.3663C203.691 49.1881 205.44 47.4389 207.618 47.4389C209.796 47.4389 211.545 49.1881 211.545 51.3663C211.545 53.5446 209.796 55.2937 207.618 55.2937ZM267.398 44.6337H270.038V31.5644H267.398V44.6337ZM260.665 57.934C264.295 57.934 267.233 54.9967 267.233 51.3663C267.233 47.736 264.295 44.7987 260.665 44.7987C257.035 44.7987 254.097 47.736 254.097 51.3663C254.097 54.9967 257.035 57.934 260.665 57.934ZM267.398 57.901H270.038V44.8317H267.398V57.901ZM260.665 55.2937C258.487 55.2937 256.738 53.5446 256.738 51.3663C256.738 49.1881 258.487 47.4389 260.665 47.4389C262.843 47.4389 264.592 49.1881 264.592 51.3663C264.592 53.5446 262.843 55.2937 260.665 55.2937ZM280.654 38.099H283.294V31.5644H280.654V38.099ZM293.723 57.901V55.2607C288.013 55.2607 283.294 50.5413 283.294 44.8317H280.654C280.654 52.1914 286.363 57.901 293.723 57.901ZM307.177 44.6337H309.817C309.817 42.4884 311.567 40.7393 313.712 40.7393C315.857 40.7393 317.606 42.4884 317.606 44.6337H320.246C320.246 41.0363 317.309 38.099 313.712 38.099C310.114 38.099 307.177 41.0363 307.177 44.6337ZM307.177 44.8317V47.4719C309.322 47.4719 311.072 49.2211 311.072 51.3663C311.072 53.5116 309.322 55.2607 307.177 55.2607V57.901C310.774 57.901 313.712 54.9637 313.712 51.3663C313.712 47.769 310.774 44.8317 307.177 44.8317ZM340.235 57.934C343.866 57.934 346.803 54.9967 346.803 51.3663C346.803 47.736 343.866 44.7987 340.235 44.7987C336.605 44.7987 333.668 47.736 333.668 51.3663C333.668 54.9967 336.605 57.934 340.235 57.934ZM346.968 57.901H349.608V44.8317H346.968V57.901ZM340.235 55.2937C338.057 55.2937 336.308 53.5446 336.308 51.3663C336.308 49.1881 338.057 47.4389 340.235 47.4389C342.413 47.4389 344.163 49.1881 344.163 51.3663C344.163 53.5446 342.413 55.2937 340.235 55.2937ZM380.026 57.934C383.656 57.934 386.594 54.9967 386.594 51.3663C386.594 47.736 383.656 44.7987 380.026 44.7987C376.396 44.7987 373.458 47.736 373.458 51.3663C373.458 54.9967 376.396 57.934 380.026 57.934ZM373.293 44.8317H370.653V57.901H373.293V44.8317ZM380.026 55.2937C377.848 55.2937 376.099 53.5446 376.099 51.3663C376.099 49.1881 377.848 47.4389 380.026 47.4389C382.204 47.4389 383.953 49.1881 383.953 51.3663C383.953 53.5446 382.204 55.2937 380.026 55.2937ZM373.293 58.099H370.653V71.1683H373.293V58.099ZM406.549 57.934C410.18 57.934 413.117 54.9967 413.117 51.3663C413.117 47.736 410.18 44.7987 406.549 44.7987C402.919 44.7987 399.982 47.736 399.982 51.3663C399.982 54.9967 402.919 57.934 406.549 57.934ZM399.817 44.8317H397.176V57.901H399.817V44.8317ZM406.549 55.2937C404.371 55.2937 402.622 53.5446 402.622 51.3663C402.622 49.1881 404.371 47.4389 406.549 47.4389C408.728 47.4389 410.477 49.1881 410.477 51.3663C410.477 53.5446 408.728 55.2937 406.549 55.2937ZM399.817 58.099H397.176V71.1683H399.817V58.099ZM433.087 40.7393C435.232 40.7393 436.981 42.4884 436.981 44.6337H439.621C439.621 41.0363 436.684 38.099 433.087 38.099C429.489 38.099 426.552 41.0363 426.552 44.6337H429.192C429.192 42.4884 430.942 40.7393 433.087 40.7393ZM426.552 44.8317C426.552 52.1914 432.262 57.901 439.621 57.901V55.2607C434.836 55.2607 430.711 51.9274 429.522 47.4719H439.621V44.8317H426.552ZM459.61 57.934C463.241 57.934 466.178 54.9967 466.178 51.3663C466.178 47.736 463.241 44.7987 459.61 44.7987C455.98 44.7987 453.043 47.736 453.043 51.3663C453.043 54.9967 455.98 57.934 459.61 57.934ZM466.343 57.901H468.983V44.8317H466.343V57.901ZM459.61 55.2937C457.432 55.2937 455.683 53.5446 455.683 51.3663C455.683 49.1881 457.432 47.4389 459.61 47.4389C461.788 47.4389 463.538 49.1881 463.538 51.3663C463.538 53.5446 461.788 55.2937 459.61 55.2937ZM492.668 44.8317H490.028V57.901H492.668V44.8317ZM492.866 57.901H495.507C495.507 52.1914 500.226 47.4719 505.936 47.4719V44.8317C498.576 44.8317 492.866 50.5413 492.866 57.901Z" fill="white"/>
<mask id="path-2-inside-1_32_35" fill="white">
<path d="M0 0H555V85H0V0Z"/>
</mask>
<path d="M555 83H0V87H555V83Z" fill="white" mask="url(#path-2-inside-1_32_35)"/>
</svg>
