<svg width="567" height="472" viewBox="0 0 567 472" fill="none" xmlns="http://www.w3.org/2000/svg">
<path d="M447.948 472C513.7 472 567 387.764 567 283.855V243.121C567 203.12 556.904 164.773 538.953 136.583L498.596 73.2096C493.14 64.6403 496.978 49.9329 504.67 49.9329H513.263C521.988 49.9329 529.058 38.7514 529.058 24.9664C529.058 11.1814 521.983 0 513.263 0H483.771H83.2285H53.7372C45.0173 0 37.9423 11.1814 37.9423 24.9664C37.9423 38.7514 45.0173 49.9329 53.7372 49.9329H62.3305C70.0223 49.9329 73.8603 64.6489 68.4038 73.2096L28.0469 136.583C10.0958 164.773 0 203.12 0 243.121V283.855C0 387.764 53.2996 472 119.052 472H447.948Z" fill="url(#paint0_linear_5_3)" fill-opacity="0.4"/>
<path d="M447.948 472C513.7 472 567 387.764 567 283.855V243.121C567 203.12 556.904 164.773 538.953 136.583L498.596 73.2096C493.14 64.6403 496.978 49.9329 504.67 49.9329H513.263C521.988 49.9329 529.058 38.7514 529.058 24.9664C529.058 11.1814 521.983 0 513.263 0H483.771H83.2285H53.7372C45.0173 0 37.9423 11.1814 37.9423 24.9664C37.9423 38.7514 45.0173 49.9329 53.7372 49.9329H62.3305C70.0223 49.9329 73.8603 64.6489 68.4038 73.2096L28.0469 136.583C10.0958 164.773 0 203.12 0 243.121V283.855C0 387.764 53.2996 472 119.052 472H447.948Z" fill="url(#paint1_linear_5_3)" fill-opacity="0.4"/>
<defs>
<linearGradient id="paint0_linear_5_3" x1="106.259" y1="15.073" x2="346.255" y2="414.066" gradientUnits="userSpaceOnUse">
<stop stop-color="white"/>
<stop offset="0.84375" stop-color="white" stop-opacity="0.1"/>
</linearGradient>
<linearGradient id="paint1_linear_5_3" x1="92.9226" y1="-81.3942" x2="488.417" y2="493.569" gradientUnits="userSpaceOnUse">
<stop stop-color="white" stop-opacity="0.49"/>
<stop offset="0.602438" stop-color="white" stop-opacity="0.08"/>
<stop offset="1" stop-color="white" stop-opacity="0.38"/>
</linearGradient>
</defs>
</svg>
